<?xml version="1.0" encoding="UTF-8"?>
<svg id="_Слой_1" data-name="Слой_1" xmlns="http://www.w3.org/2000/svg" version="1.1" viewBox="0 0 235 78">
  <!-- Generator: Adobe Illustrator 29.5.1, SVG Export Plug-In . SVG Version: 2.1.0 Build 141)  -->
  <defs>
    <style>
      .st0 {
        stroke-width: .3px;
      }

      .st0, .st1, .st2 {
        fill: #fff;
      }

      .st0, .st2 {
        stroke: #fff;
        stroke-miterlimit: 10;
      }

      .st3 {
        fill: #cc2028;
      }

      .st4 {
        fill: none;
      }

      .st2 {
        stroke-width: .3px;
      }

      .st5 {
        fill: #231f20;
      }
    </style>
  </defs>
  <rect class="st4" x=".5" y=".5" width="234" height="77"/>
  <g>
    <g>
      <polygon class="st1" points="86.1 42.5 86.1 43.8 84 43.8 84 50.4 82.5 50.4 82.4 42.5 86.1 42.5"/>
      <path class="st1" d="M88.1,48.3c0,.2,0,.4,0,.5.1.4.3.4.5.4.5,0,.7-.8.7-1.7,0-1.1-.3-1.7-.7-1.7-.2,0-.5.2-.5.5,0,.1,0,.3,0,.4v1.5ZM86.6,46.5c0-.7,0-1.3,0-1.8h1.3s0,.7,0,.7h0c.2-.5.7-.8,1.2-.8,1.3,0,1.8,1.4,1.8,3,0,2.1-.9,3-1.9,3-.5,0-.8-.3-1-.6h0v2.7s-1.5,0-1.5,0v-6.2Z"/>
      <path class="st1" d="M93.5,44.7l.6,3c0,.3.1.7.2,1h0c0-.3,0-.6.1-.9l.5-3h1.5s-1.2,4.5-1.2,4.5c-.3,1.1-.7,2.2-1.3,3-.5.6-1.1.8-1.3.9l-.5-1.3c.3,0,.5-.3.8-.5.2-.2.4-.4.5-.7,0-.1,0-.2,0-.2s0-.1,0-.2l-1.6-5.3h1.7Z"/>
      <polygon class="st1" points="101.8 44.6 101.8 50.4 100.3 50.4 100.3 45.9 99.1 45.9 99.1 50.4 97.5 50.4 97.5 44.6 101.8 44.6"/>
      <polygon class="st1" points="107.8 44.6 107.8 50.4 106.2 50.4 106.2 45.9 105 45.9 105 50.4 103.5 50.4 103.5 44.6 107.8 44.6"/>
      <path class="st1" d="M111.8,47.6c-.5,0-1.2.2-1.2,1,0,.6.3.8.6.8.2,0,.5-.2.6-.5,0,0,0-.2,0-.3v-1ZM113.3,49.1c0,.5,0,.9,0,1.3h-1.4s0-.6,0-.6h0c-.3.4-.8.7-1.3.7-.9,0-1.5-.7-1.5-1.8,0-1.5,1.3-2.1,2.6-2.2h0c0-.6-.3-.9-.8-.9-.5,0-.8.1-1.2.3l-.3-1c.3-.2,1-.4,1.8-.4,1.8,0,2,1.2,2,2.4v2.1Z"/>
      <path class="st1" d="M46.4,31.9v.6c0,.4,0,.6,0,.8,0,.2.1.3.3.4.2,0,.4.1.7.1v.5c-.7,0-1.4,0-2.1,0-.6,0-1.3,0-1.9,0v-.5c.3,0,.5,0,.7-.1.2,0,.3-.2.3-.4,0-.2,0-.4,0-.7v-5.8c0-.5,0-.9-.2-1.1-.1-.2-.4-.3-.9-.3v-.5c.6,0,1.3,0,2,0,1.9,0,4.2,0,5.1,0h.3c0,.5.1,1.3.3,2.4l-.7.2c0-.5-.2-.8-.3-1,0-.2-.2-.4-.4-.5-.2-.1-.4-.2-.6-.2-.3,0-1.5,0-2,0h-.9c0,0,0,6.1,0,6.1Z"/>
      <path class="st1" d="M54.6,32.6c-.4.5-.8,1-1,1.3-.2.3-.5.7-.5.7l-.5-.2s0-.8,0-1v-6.2c0-.3,0-.6,0-.8,0-.2-.1-.3-.3-.4,0,0-.2-.1-.3-.1v-.5c.6,0,.6,0,1.2,0,.6,0,1.3,0,1.9,0v.5h-.2c-.3,0-.5,0-.6.2-.1.1-.2.3-.2.4,0,.2,0,.4,0,.7v.6s-.1,4.4-.1,4.4l5-6.2c.5-.6,1.6-.6,1.6-.6v.2s0,.1,0,.1c0,0,0-.1,0,.3,0,.5,0,.8,0,1v5.3c0,.5,0,.8.2,1,0,.2.4.3.8.3h.1v.5c-.6,0-1.3,0-1.9,0-.6,0-1.2,0-1.8,0v-.5c.5,0,.7,0,.8-.3.1-.2.2-.5.2-1v-.6s.1-4.7.1-4.7l-4.3,5.3Z"/>
      <path class="st1" d="M108.7,32.6c-.4.5-.8,1-1,1.3-.2.3-.5.6-.7,1l-.7-.3c0-.5,0-.9,0-1.2v-6.2c0-.3,0-.6,0-.8,0-.2-.1-.3-.3-.4-.2,0-.4-.1-.7-.1v-.5c.6,0,1.3,0,1.9,0,.6,0,1.3,0,1.9,0v.5s-.2,0-.2,0c-.3,0-.5,0-.6.2-.1.1-.2.3-.2.4,0,.2,0,.4,0,.7v5c-.1,0,4.9-6.2,4.9-6.2.5-.6,1.6-.6,1.6-.6v.2s0,.1,0,.1c0,0,0-.1,0,.3,0,.5,0,.8,0,1v5.3c0,.5,0,.8.2,1,0,.2.4.3.8.3h.1v.5c-.6,0-1.3,0-1.9,0-.6,0-1.2,0-1.8,0v-.5c.5,0,.7,0,.8-.3.1-.2.2-.5.2-1v-5.3c.1,0-4.1,5.3-4.1,5.3Z"/>
      <path class="st1" d="M68.7,33.5l-2.1-6.2-1.4,3.6-.9,2.6h3.3s1.2,0,1.2,0ZM68.4,34.4h-3.3c-.2,0-.4,0-.7,0h-.7c-.3,0-.5,0-.7.2-.2.1-.3.3-.4.6,0,.2-.1.6-.2,1h-.6s0-1.7,0-1.7v-.9s.2,0,.2,0h.4c0,0,.8.1.8.1l2.2-5.5c.3-.7.6-1.5.9-2.4l1.1-.5c.1.5.3.9.3,1.1,0,.2.1.4.2.6,0,.2.2.6.4,1.1l1.9,5.5h1.1c0-.1.5,0,.5,0v.9c-.1,0-.6,1.9-.6,1.9h-.6c0-.5.1-.9.1-1.2,0-.3,0-.5-.1-.6,0-.1-.6-.2-1.4-.2h-.8Z"/>
      <path class="st1" d="M74.9,26.1v5.9s0,.6,0,.6c0,.3,0,.6,0,.8,0,.2.1.3.3.4.1,0,.4.1.7.1v.5c-.6,0-1.2,0-1.8,0-.7,0-1.3,0-2,0v-.5c.4,0,.7,0,.8-.3.1-.2.2-.5.2-1v-5.3c0-.3,0-.6,0-.8,0-.2-.1-.3-.3-.4-.1,0-.4-.1-.7-.1v-.5c.8,0,1.4,0,1.8,0,.3,0,.5,0,.8,0,.3,0,.5,0,.8,0,.3,0,.5,0,.8,0,.5,0,.9,0,1.3.3.4.2.7.4.9.8.2.4.3.8.3,1.3,0,.6-.1,1.2-.5,1.6-.3.4-.7.8-1.2,1-.5.2-1.1.3-1.7.3v-.5c.6,0,1-.3,1.3-.7.2-.4.4-.9.4-1.5,0-.7-.2-1.2-.5-1.5-.3-.3-.9-.4-1.6-.4-.1,0-.2,0-.2,0"/>
      <path class="st1" d="M84.5,30.3l-.9-3-1.1,3h2ZM84.8,31h-2.6s-.6,1.5-.6,1.5c-.1.3-.2.6-.2.8s0,.4.2.4c.2,0,.4,0,.7.1v.5c-.6,0-1.1,0-1.7,0-.5,0-1,0-1.5,0v-.5c.3,0,.5,0,.7-.2.1-.1.2-.3.4-.5.1-.2.3-.5.4-.7.1-.3.2-.5.4-.8.1-.3.2-.6.3-.8l1.1-2.7c.3-.7.6-1.5.9-2.4l1.1-.5c.1.5.3.9.3,1.1,0,.2.1.4.2.6,0,.2.2.6.4,1.1l1.1,3.3c.1.3.2.7.4,1.1.1.4.3.8.5,1.1.2.3.5.4.8.5v.5c-.6,0-1.2,0-1.8,0-.6,0-1.3,0-1.9,0v-.5c.3,0,.5,0,.6,0,.2,0,.3-.2.3-.4s0-.2,0-.3c0-.1,0-.2,0-.4,0-.1,0-.3,0-.3l-.4-1.3Z"/>
      <path class="st1" d="M91.9,29.9v2.5c0,.4,0,.8.2,1,.1.2.4.3.7.3.3,0,.5,0,.7-.1.2,0,.4-.2.6-.4.2-.2.3-.4.4-.6,0-.2.1-.5.1-.7,0-.7-.2-1.2-.6-1.5-.4-.3-1-.5-1.7-.5-.2,0-.3,0-.4,0M91.9,29.3c1.4,0,2.1-.6,2.1-1.7,0-.5-.1-.9-.4-1.1-.3-.3-.7-.4-1.2-.4h-.5s0,3.3,0,3.3ZM93.9,29.4c.5,0,.9.2,1.2.3.4.2.7.4.9.8.2.3.3.7.3,1.2,0,1-.3,1.6-1,2-.7.4-1.5.6-2.5.6-.2,0-.5,0-.9,0-.4,0-.7,0-.9,0-.6,0-1.2,0-1.8,0v-.5c.3,0,.6,0,.7-.1.1,0,.2-.2.3-.4,0-.2,0-.4,0-.8v-5.3c0-.3,0-.6,0-.8,0-.2-.1-.3-.3-.4-.1,0-.4-.1-.7-.1v-.5c.8,0,1.5,0,1.9,0,.2,0,.6,0,1.1,0,.5,0,.9,0,1.1,0,.4,0,.8,0,1.2.2.3.1.6.4.8.7.2.3.3.7.3,1.1,0,.5-.2.9-.5,1.3-.3.4-.8.6-1.3.8"/>
      <path class="st1" d="M101.8,30.5l-1-3.2-.7,2-1.1,3.1c-.1.3-.2.6-.2.8s0,.2,0,.3c0,0,.1.1.2.2,0,0,.2,0,.3,0,0,0,.2,0,.3,0v.5c-.5,0-1.1,0-1.6,0-.5,0-.9,0-1.4,0v-.6s0,0,0,0c0,0,0,0,0,0,0,0,0,0,0,0,.1,0,.3,0,.5-.2.1,0,.2-.3.3-.5.1-.2.2-.5.4-.8.1-.3.3-.6.4-.9.1-.3.2-.6.3-.8l1.1-2.7c.1-.3.2-.6.4-1.1.2-.5.3-.9.5-1.3l1.1-.5c.2.8.5,1.7.9,2.8l1.1,3.3c0,.3.2.7.3,1.1.1.4.3.8.5,1.1.2.3.5.4.8.4v.5c-.6,0-1.1,0-1.7,0-.6,0-1.2,0-1.8,0v-.5c.3,0,.5,0,.6,0,.2,0,.2-.2.2-.4s0-.2,0-.3c0-.1,0-.2,0-.3,0-.1,0-.2,0-.3l-.6-1.9Z"/>
      <path class="st1" d="M119.8,29.5l1.4-1.6.5-.5c0-.1.2-.2.3-.4.1-.1.2-.3.3-.4,0-.1.1-.3.1-.4,0-.2-.2-.3-.5-.3h-.2s0-.5,0-.5c.5,0,1.1,0,1.6,0,.4,0,1,0,1.7-.1v.5c-.3,0-.5,0-.8.1-.2,0-.4.2-.6.4-.2.1-.4.3-.5.5-.2.2-.4.4-.6.6l-1.6,1.6c.3.1.6.3.8.5.3.2.5.5.8.9.1.2.3.5.6.8.2.4.4.7.6,1,.2.3.4.6.6.9.2.2.3.3.4.4.1,0,.4.1.7.1v.5c-.3,0-.6,0-1,0-.3,0-.6,0-.7,0-.2,0-.4-.1-.6-.2-.2-.1-.4-.3-.6-.6,0,0-.2-.3-.4-.6-.2-.3-.4-.6-.5-.7,0-.2-.2-.4-.4-.6-.2-.3-.3-.5-.5-.7-.3-.4-.5-.7-.7-.8-.1-.1-.2-.2-.4-.3v-.2ZM119.5,30v2.5c0,.3,0,.6,0,.7,0,.2.1.3.3.4.1.1.4.2.7.2v.5c-.6,0-1.2,0-1.8,0-.6,0-1.3,0-1.9,0v-.5c.4,0,.7,0,.8-.3.1-.2.2-.5.2-1v-5.3c0-.3,0-.6,0-.8,0-.2-.1-.3-.3-.4-.1,0-.4-.1-.7-.1v-.5c.6,0,1.2,0,1.8,0,.6,0,1.3,0,1.9,0v.5s-.1,0-.1,0c-.3,0-.5,0-.6.2-.1.1-.2.3-.2.4,0,.2,0,.4,0,.7v2.9Z"/>
      <path class="st1" d="M133.5,29.9c0-.6-.1-1.2-.3-1.8-.2-.6-.6-1.1-1-1.6-.5-.4-1-.6-1.6-.6-.7,0-1.3.2-1.8.6-.5.4-.8.9-1.1,1.5-.2.6-.3,1.2-.3,1.9,0,.6.1,1.3.4,1.9.2.6.6,1.1,1.1,1.6.5.4,1,.6,1.7.6.7,0,1.2-.2,1.7-.6.5-.4.8-.9,1-1.5.2-.6.3-1.2.3-1.9M135.3,29.7c0,.8-.1,1.4-.4,2-.3.6-.6,1.1-1.1,1.5-.5.4-1,.7-1.6,1-.6.2-1.3.3-2,.3-.9,0-1.7-.2-2.4-.6-.7-.4-1.3-1-1.7-1.7-.4-.7-.6-1.5-.6-2.4,0-.7.1-1.4.4-1.9.3-.6.6-1.1,1.1-1.5.5-.4,1-.7,1.6-1,.6-.2,1.3-.3,2-.3.6,0,1.2.1,1.8.3.6.2,1.1.6,1.5,1,.4.4.8.9,1,1.5.2.6.4,1.1.4,1.8"/>
      <path class="st1" d="M138.6,29.9v2.5c0,.4,0,.8.2,1,.1.2.4.3.7.3.3,0,.5,0,.7-.1.2,0,.4-.2.6-.4.2-.2.3-.4.4-.6,0-.2.1-.5.1-.7,0-.7-.2-1.2-.6-1.5-.4-.3-1-.5-1.7-.5-.2,0-.3,0-.4,0M138.6,29.3c1.4,0,2.1-.6,2.1-1.7,0-.5-.1-.9-.4-1.1-.3-.3-.7-.4-1.2-.4h-.5v3.3ZM140.6,29.4c.5,0,.9.2,1.2.3.4.2.7.4.9.8.2.3.3.7.3,1.2,0,1-.3,1.6-1,2-.7.4-1.5.6-2.5.6-.2,0-.5,0-.9,0-.4,0-.7,0-.9,0-.6,0-1.2,0-1.8,0v-.5c.3,0,.5,0,.7-.1.1,0,.2-.2.3-.4,0-.2,0-.4,0-.8v-5.3c0-.3,0-.6,0-.8,0-.2-.1-.3-.3-.4-.1,0-.4-.1-.7-.1v-.5c.8,0,1.5,0,1.9,0,.2,0,.6,0,1.1,0,.5,0,.9,0,1.1,0,.4,0,.8,0,1.2.2.3.1.6.4.8.7.2.3.3.7.3,1.1,0,.5-.2.9-.5,1.3-.3.4-.8.6-1.3.8"/>
      <path class="st1" d="M147.9,29.9v2.5c0,.4,0,.8.2,1,.1.2.4.3.7.3.4,0,.7,0,.9-.2.3-.2.5-.4.6-.7.1-.3.2-.6.2-1,0-.5,0-.8-.3-1.1-.2-.3-.4-.5-.7-.7-.3-.1-.7-.2-1.1-.2h-.2c-.2,0-.3,0-.4,0M143.4,25.3c.4,0,.8,0,1.2,0,.4,0,.9,0,1.4,0,.6,0,.9,0,1,0,.8,0,1.4,0,1.9,0v.5c-.3,0-.5,0-.7.1-.2,0-.2.2-.3.4,0,.2,0,.4,0,.8v2s1.7,0,1.7,0c.5,0,.9,0,1.3.3.4.2.7.4.9.8.2.3.3.8.3,1.2h0c0,.8-.2,1.3-.5,1.7-.3.4-.7.7-1.2.8-.5.2-1.1.3-1.7.3-.2,0-.5,0-.9,0-.4,0-.7,0-.9,0-.5,0-1.1,0-1.8,0v-.5c.4,0,.7,0,.8-.3.1-.2.2-.5.2-.9v-4.9s0-1.7,0-1.7h-.4c-.6,0-1,0-1.2.2-.2.1-.4.4-.5.6,0,.3-.1.5-.2.8h-.7c0,0,.2-1.6.2-1.6v-.9Z"/>
      <polygon class="st1" points="58.2 39.7 58.2 38.6 137.6 38.5 137.6 39.1 58.2 39.1 58.2 39.7"/>
      <path class="st3" d="M18.4,18.9c-7.9,0-11.9,2.8-13.5,4.5h-.1v12.2c0,4.7,8.5,10.4,13.5,13h.2c0,0,.2,0,.2,0,5-2.6,13.5-8.3,13.5-13v-12s0-.1,0-.1h-.1c-1.7-1.8-5.6-4.5-13.5-4.5M18.5,53.6c-1.7-.8-18.1-8.7-18.1-18v-13.7c.5-.8,5.2-7.5,18.1-7.5,12.8,0,17.6,6.6,18.1,7.4v13.7c0,9.4-16.3,17.3-18.1,18.1"/>
      <path class="st5" d="M18.5,49l-.3-.2c-5.1-2.6-13.7-8.4-13.7-13.3v-12s0-.3,0-.3l.2-.2c1.7-1.7,5.7-4.6,13.8-4.6,8,0,12.1,2.8,13.8,4.5l.2.2v.3s0,12,0,12c0,4.9-8.6,10.7-13.6,13.3l-.3.2ZM18.4,14.8c-7,0-11.5,2-14,3.7-2.3,1.5-3.4,3-3.7,3.5v13.6c0,8.9,15.4,16.5,17.8,17.6,2.3-1.1,17.7-8.7,17.7-17.7v-13.6c-.3-.5-1.5-2-3.8-3.5-2.5-1.7-7-3.7-14-3.7M18.5,48.2c6-3.1,13.3-8.6,13.3-12.7v-12c-1.5-1.5-5.4-4.3-13.3-4.3-7.9,0-11.8,2.8-13.3,4.3v12c0,4.1,7.3,9.6,13.3,12.7M18.4,14c14,0,18.5,7.7,18.5,7.7v13.8c0,10.2-18.4,18.5-18.4,18.5C18.5,54,0,45.7,0,35.6v-13.8s4.5-7.7,18.4-7.7"/>
      <path class="st3" d="M27.7,52c-4.5,3.3-9,5.3-9,5.3l-.4.2-.4-.2s-4.5-2-9.1-5.3c-3.4-2.4-6.8-5.1-8.4-8.8v.3c0,9.8,17.8,19.9,17.8,19.9,0,0,17.8-10.1,17.8-20v-.3c-1.6,3.7-5,6.4-8.4,8.8"/>
      <path class="st5" d="M6.4,54c3.1,3.2,6.8,5.9,9.3,7.5,1.3.8,2.2,1.4,2.6,1.6.4-.2,1.3-.8,2.6-1.6,1.7-1.1,3.9-2.7,6.1-4.5,4-3.4,7.9-7.8,8.6-12-1.8,3-4.8,5.3-7.7,7.4l-.2-.3.2.3c-4.6,3.3-9,5.3-9.1,5.3l-.5.2-.5-.2s-4.5-2-9.1-5.3c-2.9-2.1-5.9-4.4-7.7-7.4.5,3.1,2.7,6.2,5.4,9M18.2,63.9s-4.5-2.5-9-6.3C4.7,53.7.2,48.7.2,43.6v-.3s.7-.1.7-.1c1.5,3.6,4.9,6.2,8.3,8.6,4.5,3.3,9,5.2,9,5.3h.2c0,0,.2,0,.2,0h0s0,0,0,0c0,0,0,0,.2,0,.1,0,.3-.2.6-.3.5-.2,1.2-.6,2-1,1.7-.9,3.9-2.2,6.2-3.9,3.3-2.4,6.7-5.1,8.3-8.7h.7v.5c0,5.1-4.5,10.2-9,13.9-4.5,3.8-8.9,6.3-8.9,6.3h-.2c0,.1-.2,0-.2,0Z"/>
      <path class="st1" d="M18.4,19.2c-7.9,0-11.8,2.8-13.3,4.3v12c0,4.1,7.3,9.6,13.3,12.7,6-3.1,13.3-8.6,13.3-12.7v-12c-1.5-1.5-5.4-4.3-13.3-4.3"/>
      <path class="st5" d="M21.8,27.9c0,0,0,.2,0,.3,0,.2-.3.3-.6.2-.2,0-.3-.1-.4-.2,0,0-.1-.2,0-.3,0-.1.1-.2.2-.2,0,0,.2,0,.3,0,0,0,0,.1,0,.2,0,0,0,.2,0,.3,0,.1.2.2.3,0,.1-.1.1-.3,0-.5.1,0,.2,0,.2.2M20.7,27.8s0,0,0,0c0,0,0,0,0,0M20.5,27.7c-.2,0-.5,0-.7,0-.2,0,.5.2.6.4.1.2.5.6.8.7.7.1.7-.3,1-.4,0,0,.2,0,.3,0,.2,0,.3,0,.3-.1,0-.2-.2-.3-.3-.4,0,0,0,0-.1-.1-.1,0-.2,0-.3,0,0,0,0,0,0,0,0,.1,0,.4,0,.5-.1.2-.4.3-.8.2-.4-.1-.6-.4-.5-.7,0,0,0,0,0,0,0,.3.2.5.5.6.2,0,.3,0,.5,0,.1,0,.2-.2.2-.3,0-.1,0-.2,0-.4,0,0,0,0,0,0,0,0-.2-.1-.3-.2,0,0-.1-.1-.2-.2,0,0,0,0-.1,0-.3,0-.6.2-.8.3"/>
      <path class="st5" d="M26.2,28.3c-.2.2-.4.3-.5.3,0,0,0,0,0,0,.3,0,.5-.3.6-.4,0-.2,0-.3,0-.3,0,0,.1,0,.2,0,0,.1,0,.3-.2.4M25.4,28.5c0,0-.1,0-.1-.1,0,0-.2-.2-.2-.3,0-.2.3-.2.4-.2,0,0,0,.1,0,.2,0,0,0,.1,0,.2,0,0,.2.1.3,0,0-.1,0-.3,0-.4,0,0,0,0,0,0,0,0,.2,0,.3,0,0,0,0,0,0,0,0,0,0,.2,0,.3,0,.3-.4.4-.6.4M24.7,27.7s0,0,0,.1c0,.1.2.2.3.2,0,0,0,0,.1.1.1.2,0,.3.2.5.2.3.7.3,1-.3.2-.3.4-.6.6-.6-.1,0-.3,0-.5,0-.2,0-.5-.2-.8-.2-.1,0-.2,0-.4,0-.2.1-.5.2-.7.2"/>
      <path class="st5" d="M21.6,27.6c0,0,.2.1.3.2,0,0,0,0,.1,0,.1,0,.2,0,.3,0,.1,0,.2,0,.3,0,.9-.2.9-1.6.9-2.3,0-.3,0-.4,0,0,0,.4,0,1.4-.5,1.8-.8.6-1.4-.2-1.9-.6-.5-.5-1.4-.6-1.8,0,0,0,0,.1,0,0,.6,0,1-.3,1.5.1.2.1.3.3.5.4,0,0,.1.1.2.2"/>
      <path class="st5" d="M26.3,26.7c.2,0,.3.2.4.1,0,0,0-.3-.4-.3-.3,0-.5.2-.6.3-.4.4-.9.9-1.5.3-.3-.3-.3-1.3-.3-1.6,0-.3,0-.2,0,.1,0,.4,0,2,.8,2.1h0c.3,0,.5,0,.7-.2,0,0,0,0,0,0,.3-.2.5-.7.8-.8"/>
      <path class="st5" d="M23.1,29c-.4,0-.8.1-1,.4,0,0,0,0,0,0,.3-.2.6-.3.9-.3.4,0,.9.5,1,.5,0,0-.4-.5-1-.6"/>
      <path class="st5" d="M25.6,29.1c-.2-.1-.5,0-.8.1-.3.2-.4.5-.3.5,0,0,.2-.2.5-.4.2-.1.4-.2.6-.2,0,0,0,0,0,0"/>
      <path class="st5" d="M24.8,30.3c-.4,0-.8-.2-.8,0,0,.2.5.5.9.4.4-.1.4-.4.3-.5,0-.1,0,.2-.4.2"/>
      <path class="st5" d="M27.7,33.1c.3-.3.6-1.1.7-1.6.2-1.1.2-2.4-.2-3.1-.2-.3-.4-.7-.7-.9-.1-.1-.3-.2-.4-.3,0,0,0,0,0,0,.2.2.4.6.6.9.2.4.1.9,0,1.3,0,.2,0,.5-.1.7,0,.4-.2.7-.3,1.1,0,0-.2.5-.2.6,0,0,0-.3,0-.4,0-.2,0-.4,0-.6,0-.4-.3-.8-.7-1,0,0,0,0,0,0,.3.2.4.6.5,1,0,.3,0,.7,0,1,0,.3-.3.9-.5,1.1-.1.2-.4,0-.7,0-.2,0-.4,0-.5,0-.1,0-.2-.2-.1-.3,0-.1,0-.2.3-.4.2-.2.5-.7.6-.8,0-.2.1-.6,0-.8,0,0,0,.2,0,.2,0,0,0,.2-.2.2,0,0-.2,0-.3.1,0,0-.1.2-.5.2-.2,0-.5-.1-.6-.2-.3,0-.5,0-.6.2,0,0-.2,0-.2-.1-.2-.2-.2-.5-.2-.4,0,0,0,.1,0,.3,0,.2.1.3.2.3.2.1.5.2.6.5,0,.1.2.3.3.4.2.1.2.2.2.4,0,.1,0,.5-1,.6,0,0-.4,0-.6,0-.2,0-.3,0-.5,0-.3,0-.6,0-.9-.2-.3-.1-.6-.3-.7-.6-.2-.4-.2-.8-.2-1.2,0-.4.2-.9.3-1.2,0,0,0,0,0,0-.3.5-.6,1.1-.6,1.7,0,.4,0,.8.3,1.1.4.6,1.1.6,1.8.6,0,.3.2,1.4.5,1.5,0,0,.1-.5.2-.9,0-.3,0-.6.1-.7,0,0,.2,0,.4,0,0,0,0,.1,0,.2,0,.1,0,.2,0,.2,0,0,.2-.3.2-.4,0,0,0,.2,0,.2,0,0,.5,0,.7,0,.1,0,0-.3.1-.2,0,0,0,.3,0,.4,0,.1.1,0,.2-.1,0-.1,0-.3.1-.3,0,0,0,.2,0,.5,0,.4-.2.8-.2.9.1,0,.4-.3.6-.6.1-.3.2-.5.2-.7.1,0,.3.1.4,0,0,0,0,.1,0,.2,0,.1,0,.2.2.2.1,0,.2,0,.4,0,.5-.3,1.1-1.6,1.1-1.1,0,.2-.2.7-.1.6"/>
      <path class="st5" d="M26.7,33.6s0,0,0,0h0s0,0,0,0"/>
      <path class="st5" d="M18,34.9c0,.2-.1.3-.2.5,0,.2-.2.3-.2.5,0,0,0,0,0,0,.3-.1.5-.5.7-.8.2-.3.2-.7.3-1.1,0-.4,0-.8,0-1.2,0-.4,0-.8,0-1.2,0,0,0,0,0,0,0,.7,0,1.4-.1,2.2,0,.4-.1.7-.3,1"/>
      <path class="st5" d="M21.3,33.5c0,0-.2.5-.3.8,0,.3-.2,1.2-.2,2.2,0,.8.3,1.6.4,1.7.4.3.5.2.7,0,.1,0,.4-.1.7-.1.3,0,.5,0,.6.1.4.3.7,0,.9-.4.1-.2.2-.4.2-.6,0-.4.1-1.1.2-1.3,0-.6,0-.9-.1-1.1-.2-.5-.4-.8-.4-.6,0,.1.2.9-.1,2.1,0,.3-.3.6-.5.7-.2,0-.2,0,0,0,.1,0,.3,0,.4,0,.3,0,.4,0,.4,0,0,.1-.2.3-.4.4-.1,0-.4,0-.6,0-.2.1-1,.1-1.2,0,0,0-.3.2-.4.1-.1,0-.2-.2-.2-.3,0-.1.1-.2.3-.2.2,0,.2.2.3.1-.2,0-.2-.3-.2-.6,0-.3-.4-.5-.6-1.1-.2-.7,0-2,0-2.1"/>
      <path class="st5" d="M23.3,23c0-.4-.3-.9-.7-1.1l.4,1.8c0,.2.4-.4.4-.7"/>
      <path class="st5" d="M13.7,26.2c0,.4,0,.7.2,1,0,.1.1.2.3.4.2.2.2.1,0,.3-.4.2-.8.5-1.2.8-.5.5-.4,1.1-.5,1.2-.1-.3-.1-1-.1-1.3.2-1.6.9-1.9,1.3-2.4M27.6,26.2c.4,0,.7-.4.7-.7,0-.5-.5-.8-.7-1.2-.4-.6-.5-1.4-1.2-1.6-.3-.1-.6,0-.9,0-.3,0-.3-.3-.4-.5-.2-.6-.5-.9-1.1-1.1-.5-.2-1.4-.2-2.6,0,0,0-.1-.1-.2-.2-.4-.3-.8-.5-1.8-.5-.9,0-1.8.6-2.3,1.1-.3,0-.6,0-1,0-1.2,0-2,.6-2.8,1.4-.5.5-1.1,1.4-1.6,2-.6.6-1.9,1.7-1.7,1.6.8-.3,1.1-.3,1.1-.3-.3.5-1.2,1.1-1.6,1.3-.3.2-.9.5-1.3.8-.2.2-.5.4-.8,1-.1.2.1-.1.4-.3.4-.2,0,.2-.3.7-.2.4-.3,1-.3,1.3,0,0,0,.1,0,.2-1,.6-1.6,1.6-2.1,2.4v.8c.6-1.1,1.2-2.1,2.2-2.8,0,.4.2.6.4.9-.8,1.2-1.9,3-2.5,3.8,0,.2,0,.5.2.7,0-.2.1-.4.3-.6.5-.4,1.5-2.5,2.6-3.5.2.1.8.2.6,1.6-.1.9-1.1,1.6-.5,1.3.7-.4,1.6-1.6,1.7-1.9.3-.6.4-1.4.4-1.6,0-1.6-.3-2.2,0-3.5.2-.9,1-2.5,2.9-2.9-1.9.6-2.2,2.1-2.3,3.4-.1,1.5,1,3.8,1,3.8-.1,0-1.4-2.5-1.2-4.1-.4,1,.1,2.6.1,3.1,0,.3,0,.6-.2.9,0,.1-.2.2-.3.4,0,.2,0,.4,0,.6,0,.2.3.4.5.3.2,0,.3-.2.4-.6,0,0,.2.6-.2,1.1-.4.6-1,.7-1.5,1.3-.9.9-.4,1.8-.5,2.1.2-.9,0-1.5.9-1.9.1,0-.5.8,0,2-.3.4-.5.9-.5,1.2,0,.3,0,0-.4-.8,0-.1-.1,0,0,.3.2.7.3,1.4.2,1.9,0,.6-.1,1.1-.2,1.5,0,0,.2.2.3.2.1-.6.3-1.1.4-1.6.2-1.2-.1-1.8.4-2.4.1.3.8,1.3.8,1.6,0,.8,0,.6.3,0,.4-.8.8-1,1.2-1.8.5-1.2.5-1.3.5-.8,0,.6-.5,1.5-.4,1.5.4-.4.7-.9,1-1.6-.5,1.2-.2,1.3-.5,2.2-.3.9-1.2,2.3-.7,2.4.2,0,.4.1.6.1,0,0,.5,0,.5,0,.2.2.4.3.7.4,0,0-.3.5-1.4,1-.6.3-1,.4-1.5.5.2.1.3.3.5.4.5,0,1-.1,1.5-.2.3.2.5.5.4.8-.2.4-.3.1-.5.3.2.1.4.3.6.4.2-.4.2-.8.2-1.2,0-.2,0-.3-.2-.4.3,0,.6-.2.9-.3.5-.2,1.9-1.3,2.1-1.6.2.6.5,1.2.6,1.3.2.5.9,1.3,1.8,1.8.9.5,1.7.5,2,1.1.3.7-.2,1.5.3,2.1.2.3.8.4,1,.4.3,0,.3-.1.2,0,0,.1-.3.2-.2.3.1.1.4,0,.6,0,.6,0,.6.3,1,.4.3,0,.6-.3.5-.1,0,.1-.3.3-.2.3.3.1.8-.2.8-.1.4.2.7,0,.9,0,.2,0-.2.2,0,.3.2.1.5-.2.7-.2.5.2.5,0,.5,0,0,.1,0,.2,0,.2.1,0,.3,0,.4-.2,0,0,0,0,0,0,.3-.2.5-.5.6-.8,0-.3.1-.6,0-.9,0-.4-.3-.6-.5-.5-.1,0,0-.2-.2-.4,0,0-.1-.2-.2-.2-.6-.4-.3-1-1-1-.7,0-1.1-1-1.5-1.2-.5-.3-.9-.3-1.2-.6-.5-.6,0-.9-.8-1.9-.5-.6-1.5-1.3-1.9-2-.2-.4-.4-.7-.5-1,.3.4.8.7,1.4.7.4,0,.9,0,1.2-.3.2,0,.4-.2.7-.5.5-.6.7-1.4.7-1.5,0,0-.2.6-.6,1.1-.2.3-.5.5-.7.6-.2.1-.6.3-.8.3-.5,0-1.3-.2-1.6-.6-.1-.2-.3-.4-.3-.8,0,0-.1-.2-.2-.2-.4,0,0,.8,0,1,0,0,0,.1.1.2,0,.5.2,1,.5,1.6.4.7,1.2,1.1,1.6,1.8.5.8.4,1.2.6,1.6,0,.2.1.3.3.5.2.2.4.3.6.4.2,0,.4.2.6.3,0,0,0,0,0,0,0,0,0,0,0,0,0,0,0,0,0,0,0,0,0,0,0,0,0,0,0,0,.1,0,.5.3.3.6.9,1,.4.3.9-.2,1.2.5,0,0,0,0,0,0,0,0,0,0,0,0,0,0,0,0,0,0,0,0,0,0,0,0,0,0,0,0,0,0,0,0,0,0,0,0,0,0,0,0,0,0,0,0,0,0,0,0,0,0,0,0,0,0,0,0,0,0,0,0,0,0,0,0,0,0,0,0,0,0,0,0,0,0,0,0,0,0,0,0,0,0,0,0,0,0,0,0,0,0,0,0,0,0,0,0,0,0,0,0,0,0,0,0,0,0,0,0,0,0,0,0,0,0,0,0,0,0,0,0,0,0,0,0,0,0,0,0,0,0,0,0,0,0,0,0,.1,0,.1,0,0,.3,0,.6,0,0,0,.1,0,.1,0,0,0,0,0-.1.2-.2.5-.2.6.2,0,.2,0,.7-.1,1.1,0,.2-.3.5-.5.5,0,0-.1,0-.1,0,0-.1.1-.4,0-.4,0,0,0,.2-.2.3,0,0-.2.1-.4,0,.1-.3.3-.7.4-1,0-.7,0-1.2-.5-1.4-.2,0-.5,0-.6.2,0,0,0,.1,0,.1,0,0,0,0,.1,0,.4-.2.9.2.8,1.1,0,.3-.2.8-.4,1-.2.2-.2,0-.2-.3,0,0,0-.2,0-.2s0,.1,0,.2c-.2.4-.5.4-.7.3.1-.1.4-.6.5-1.1.1-.6-.1-1.3-.5-1.3-.3,0-.5,0-.7.5,0,0,0,.1,0,.2,0,0,0,0,.1-.1.2-.1.3-.2.5-.2.3,0,.4.5.2,1.1-.1.4-.4,1.1-.8,1.1-.2,0,0-.2,0-.3,0,0,0-.2,0-.2,0,0-.1,0-.1.1,0,0-.1.1-.2.2-.3.2-.6-.2-.7-.3,0,0,.5-.5.6-1,.2-.8,0-1.2-.2-1.3-.2-.1-.5-.2-.9.3,0,0-.2.2-.1.2,0,0,.1-.1.2-.2.5-.3.8,0,.7.6,0,.7-.7,1.2-1,1.2-.2,0-.3,0-.2-.2,0,0,0-.1.1-.2,0,0,0-.1,0-.2,0,0-.1,0-.2,0,0,0-.1,0-.2,0-.2,0-.4-.1-.6-.3-.3-.4-.3-1.1.2-1.6,0,0,0,0,0,0h0s0,0,0,0c0,0,0,0,0,0,0,0,0,0,0,0,0,0,0,0,0,0,0,0,0,0,0,0,0,0,0,0,0,0,0,0,0,0,0,0,0,0,0,0,0,0,0,0,0,0,0,0,0,0,0,0,0,0,0,0,0,0,0,0,0,0,0,0,0,0,0,0,0,0,0,0,0,0,0,0,0,0,0,0,0,0,0,0,0,0,0,0,0,0,0,0,0,0,0,0,0,0,0,0,0,0,0,0,0,0,0,0,0,0,0,0,0,0,0,0,0,0,0,0,0,0,0,0,0,0,0,0,0,0,0,0,0,0,0,0,0,0,0,0,0,0,0,0,0,0,0,0,0,0,0,0,0,0,0,0,0,0,0,0,0,0,0,0,0,0,0,0,0,0,0,0,0,0-.4,0-.7,0-1,.2-.2,0-.3.1-.5.1-.4,0-.3-.4-.6-.5,0,0,0,0,0,0,0,0,0,0,0,0,0,0,0,0,0,0,0,0,0,0,0,0,0,0,0,0,0,0,0,0,0,0,0,0,0,0,0,0,0,0,0,0,0,0,0,0,0,0,0,0,0,0,0,0,0,0,0,0,0,0,0,0,0,0,0,0,0,0,0,0,0,0,0,0,0,0,0,0,0,0,0,0,0,0,0,0,0,0,0,0,0,0,0,0,0,0,0,0-.1,0,0,0,0,0,0,0,0,0,0,0-.1,0,0,0,0,0,0,0,0,0-.1,0-.2,0,0,0,0,0,0,0-.2-.1-.4-.2-.6-.4,0,0,0,0,0,0,0,0,0,0-.1,0,0,0,0,0,0,0-.3-.2-.7-.5-1-.8-.7-.7-1.3-1.7-1.5-2.3,0,0,.3-.2.6-.3,0,0,0,0,0,0,.6-.2,1.3.3,1.7.8.4.5.6,1.1.8,1.7.1.4.3.7.6,1,0,0,.2.2.3.2,0,0,0,0,0,0,0,0-.1-.1-.2-.2-.4-.5-.5-1.2-.6-1.8-.1-.7-.4-1.3-.8-1.8-.2-.2-.4-.3-.6-.4.3-.2.5-.4.6-.6.1-.2.1-.5,0-.7,0,0-.1-.2-.2-.3,0-.2.1-.4.2-.6,0-.1,0-.3,0-.4,0-.1,0-.3,0-.4,0,0,.1-.1.2-.2.1-.1.2-.3.2-.4,0-.2.1-.5.1-.8,0-.2,0-1.2,0-1.5,0-.3,0-.8,0-1.1.1-.5.2-.7.2-.8,0,0,0,0,0,0-.2.4-.4,1-.4,1.1,0,.5,0,1.1-.1,1.1-.2-.4-.6-1.2-.8-1.6-.2-.4-.4-.8-.5-1.3,0,0,0,0,0,0,0,.4,0,.9.2,1.3.1.4.2.9.4,1.3,0,.2.1.4.2.7,0,.1,0,.2,0,.3,0,0,0,0,0,0,0,0,0,0,0,0,0,0,0,0,0,0,0,0,0,.1,0,.2,0,0,0,0,0,.1-.1-.3-.3-.6-.4-.9,0-.1-.1-.1-.1,0,0,.3,0,1,0,1.5-.1.6-.5.9-.5.9.3-.5.4-1.4.4-1.9,0-.4,0-1.6-.1-1.4-.2,1.6-1,2.3-1.1,2.5-.1.2-.4.5-.2,1.1,0,.4.3.7.4.8,0,0,0,0,0,0,0,0-.4,0-.4,0-.2,0-.3,0-.5,0-.4,0-.3-.4-.8-.9-.6-.5-1.5-.6-1.8.2,0,.1.4-1,.3-2.5,0-.5-.3-1.2-.6-1.6,0,0,0,0,0,0,.7.6,1.4.6,1.7.5.2,0,.3-.1.5-.3-.3.2-.6.8-.8,1.1-.3.7-.2,1.4.3,2,.2.2.5.3.8.4.2,0-.5-.7-.3-1.5.2-.6.7-1.1,1.1-1.6.3-.4.7-1,.8-1.4.1-.6.2-1,0-1.6,0-.4-.4-1.1-.9-1.2,0,0,0,0,0,0,.5.8.3,2.1-.3,2.8,0-.2,0-.3,0-.5,0-.9-.2-1.8-.3-2.7,0-.8.2-1.5,1.1-1.6,0,0,0,0,0,0-.7-.3-1.3,0-1.6.7-.3.9,0,1.8-.1,2.7,0,.7-.2,1.1-.9,1.3.7-.2.7-.7.5-1.3-.2-.6-.5-1.1-.4-1.7.1-.7.4-1.5,1-1.9.5-.3-1-.9-1.4-1.3-.4-.3-.6-.6-.7-1.1-.2-.9,1.1-1,1.6-.7.2.2.5.4.6.7,0,0,0,0,0,0-.1-.3-.3-.6-.5-.8-.5-.5-1-.7-1.6-.5-.7.1-1.3.3-1.8.6.3-.2.6-.4.9-.5.3-.1,1.2-.4,1.8-.3.8.2,1.4.6,1.6,1.3,0,0,0-.6-.3-1-.2-.4-.8-.7-1.3-.9.3,0,.6-.1.8-.1,1.1-.1,1.6,0,1.8,0,.4,0,.7.2.8.6.1.4,0,.7-.3,1-.3.3-.5.4-.7.8,0,.2-.2.7.4,1.1,0,0,0,0,0,0-.2-.2-.3-.4-.2-.6.1-.2.3-.3.5-.5.6-.4,1.3-.6,1.6-1.3.6-1.3-.8-2.5-1.9-2.5-.5,0-1,.2-1.4.4-.5.3-1.2.5-1.9.3.6,0,1-.3,1.4-.7.4-.5,1.4-1,2.5-.7,1.5.3,1.1,2.3,3,2.3-1.2-.6-.3-1.7-1.6-2.5-.4-.3-.9-.3-1.2-.3.2,0,.6,0,.7,0,1.9.3,2.4,2.4,2.4,2.3.2-1.1-.1-2.1-.5-2.6.8,0,1.9.2,2.4.7,1.1,1.1,0,1.7,0,2.2,0,0,0,0,0,0,0,.3,0,.5.4.6.1,0,.3,0,.4,0,.4-.2,1-.4,1.5,0,.3.2.4,1,1.2.9-.1,0-.5.2-.8,0-.3-.2-.5-.6-.9-.6-.3,0-.4.3-.8.4,0,0,0,0,0,0,.1,0,.8.1,1.2.5.5.4,1.2,1.1,1.6,1.6.6,1,.8,2,.9,2.2,0-.8-.5-2.1-.7-2.4-.1-.2-.4-.6-.5-.8"/>
      <path class="st1" d="M21.3,45.6s0,0,0,0c0,0,0,0,0,0,0,0,0,0,0,0,0,0,0,0,0,0,.3.2.3.5.6.5.1,0,.3,0,.5-.1.3-.1.7-.3,1-.2,0,0,0,0,0,0,0,0,0,0,0,0,0,0,0,0,0,0,0,0,0,0,0,0,0,0,0,0,0,0,0,0,0,0,0,0,0,0,0,0,0,0,0,0,0,0,0,0,0,0,0,0,0,0,0,0,0,0,0,0,0,0,0,0,0,0,0,0,0,0,0,0,0,0,0,0,0,0,0,0,0,0,0,0,0,0,0,0,0,0,0,0,0,0,0,0,0,0,0,0,0,0,0,0,0,0,0,0,0,0,0,0,0,0,0,0,0,0,0,0,0,0,0,0,0,0,0,0,0,0,0,0,0,0,0,0,0,0,0,0,0,0,0,0,0,0,0,0,0,0,0,0,0,0,0,0,0,0,0,0,0,0,0,0,0,0,0,0,0,0,0,0,0,0,0,0,0,0,0,0h0s0,0,0,0c-.5.5-.5,1.2-.2,1.6.1.1.4.3.6.3s.2,0,.2,0c0,0,.1-.2.2,0,0,0,0,.1,0,.2,0,0,0,.2-.1.2,0,.1,0,.2.2.2.3,0,.9-.5,1-1.2,0-.7-.2-1-.7-.6,0,0-.1.2-.2.2,0,0,0-.2.1-.2.4-.5.7-.4.9-.3.2.1.4.6.2,1.3-.1.5-.6.9-.6,1,0,0,.4.4.7.3.1,0,.1-.1.2-.2,0,0,0-.2.1-.1,0,0,0,.2,0,.2,0,.2-.2.3,0,.3.4,0,.7-.7.8-1.1.2-.6,0-1.1-.2-1.1-.1,0-.3,0-.5.2,0,0,0,.1-.1.1,0,0,0-.1,0-.2.1-.4.4-.5.7-.5.4,0,.7.7.5,1.3-.1.5-.3,1-.5,1.1.2,0,.6,0,.7-.3,0,0,0-.2,0-.2,0,0,0,.2,0,.2,0,.2,0,.4.2.3.3-.2.4-.7.4-1,.2-.9-.4-1.4-.8-1.1,0,0,0,0-.1,0,0,0,0,0,0-.1.1-.1.3-.3.6-.2.4.2.6.6.5,1.4,0,.3-.2.7-.4,1,.2,0,.3,0,.4,0,0,0,.2-.3.2-.3.1,0,0,.3,0,.4,0,.1,0,.1.1,0,.1,0,.4-.3.5-.5.2-.4.2-.9.1-1.1-.1-.4-.4-.4-.6-.2,0,0,0,.1,0,.1,0,0,0,0,0-.1,0-.3.1-.5,0-.6,0,0,0,0-.1,0,0,0,0,0,0,0,0,0,0,0,0,0,0,0,0,0,0,0,0,0,0,0,0,0,0,0,0,0,0,0,0,0,0,0,0,0,0,0,0,0,0,0,0,0,0,0,0,0,0,0,0,0,0,0,0,0,0,0,0,0,0,0,0,0,0,0,0,0,0,0,0,0,0,0,0,0,0,0,0,0,0,0,0,0,0,0,0,0,0,0,0,0,0,0,0,0,0,0,0,0,0,0,0,0,0,0,0,0,0,0,0,0,0,0,0,0,0,0,0,0,0,0,0,0,0,0,0,0,0,0,0,0-.3-.7-.7-.3-1.2-.5-.6-.4-.4-.7-.9-1,0,0,0,0-.1,0,0,0,0,0,0,0,0,0,0,0,0,0,0,0,0,0,0,0,0,0,0,0,0,0-.2,0-.4-.2-.6-.3-.2-.1-.4-.2-.6-.4-.2-.2-.2-.3-.3-.5l-1.8,1.7s0,0,0,0c0,0,0,0,0,0"/>
      <path class="st1" d="M27.8,49.6h0s0,0,0,0h0Z"/>
    </g>
    <rect class="st3" x="172.1" y="14" width="62.9" height="49.9"/>
    <g>
      <g>
        <g>
          <path class="st1" d="M177,42.4l4.9-3.1h1.6v12.4h-2.3v-9.3l-2.9,1.9-1.3-1.9Z"/>
          <path class="st1" d="M186.1,48h2.3c0,.6.2,1,.7,1.3.4.3,1.1.4,2,.4s1.7-.2,2.2-.5.7-.8.7-1.5-.3-1.2-.8-1.6c-.5-.3-1.3-.5-2.5-.5s-2.1.3-2.1.8h-2.2v-7.1h8.9v2.3h-6.8v2.4c.6-.4,1.6-.6,2.9-.6s2.8.3,3.6,1c.8.7,1.2,1.7,1.2,3.2s-.4,2.6-1.3,3.3c-.8.7-2.2,1-4,1s-3-.3-3.8-.9c-.8-.6-1.2-1.6-1.2-2.9Z"/>
        </g>
        <g>
          <path class="st0" d="M200,50v-1.8h.5c.2,0,.4,0,.5-.3.1-.2.3-.6.4-1.4.1-.7.2-1.8.3-3.2v-2.1h7.4v8.8h-1.9v-7.1h-3.6v.7c-.1,1.7-.3,3.1-.5,4-.2.9-.5,1.5-.9,1.9-.4.4-.9.6-1.6.6h-.6Z"/>
          <path class="st0" d="M218.9,50h-7.9v-8.8h7.9v1.7h-6v2h5.3v1.6h-5.3v2h6v1.7Z"/>
          <path class="st0" d="M220.8,42.9v-1.7h9.2v1.7h-3.7v7.1h-1.9v-7.1h-3.7Z"/>
        </g>
      </g>
      <g>
        <path class="st2" d="M189,34.8h-1.7v-8.5h1.7v3.5h5.2v-3.5h1.7v8.5h-1.7v-3.5h-5.2v3.5Z"/>
        <path class="st2" d="M198.8,34.8h-1.8l3.8-8.5h1.9l3.8,8.5h-1.8l-.7-1.6h-4.6l-.7,1.6ZM201.7,28.1l-1.6,3.6h3.1l-1.6-3.6Z"/>
        <path class="st2" d="M209.3,34.8h-1.7v-8.5h2.8l2.6,6.6,2.6-6.6h2.8v8.5h-1.7v-6.8l-2.7,6.8h-1.9l-2.7-6.8v6.8Z"/>
      </g>
    </g>
  </g>
</svg>