<?xml version="1.0" encoding="UTF-8"?>
<svg id="_Слой_1" data-name="Слой_1" xmlns="http://www.w3.org/2000/svg" version="1.1" viewBox="0 0 462.7 151.7">
  <!-- Generator: Adobe Illustrator 29.5.1, SVG Export Plug-In . SVG Version: 2.1.0 Build 141)  -->
  <defs>
    <style>
      .st0 {
        fill: #fff;
      }

      .st1 {
        fill: #ca1517;
      }

      .st2 {
        fill: #1d1d1b;
      }

      .st3 {
        fill: #12110c;
      }
    </style>
  </defs>
  <polygon class="st0" points="261.8 86.4 261.8 90.5 255.4 90.5 255.4 110.6 250.7 110.6 250.7 86.4 261.8 86.4"/>
  <path class="st0" d="M268,104.2c0,.6,0,1.1.3,1.5.4,1.1,1,1.4,1.5,1.4,1.7,0,2.2-2.4,2.2-5.2,0-3.3-.8-5.1-2.2-5.1-.7,0-1.4.7-1.6,1.5-.2.4-.2.8-.2,1.3v4.7ZM263.3,98.6c0-2.1,0-3.9-.1-5.6h4.1s.3,2,.3,2h0c.7-1.4,2-2.3,3.7-2.3,3.9,0,5.5,4.2,5.5,9,0,6.2-2.8,9.1-5.7,9.1-1.4,0-2.4-.9-2.9-1.7h0v8.3s-4.7,0-4.7,0v-18.9Z"/>
  <path class="st0" d="M284.2,93l1.7,9.1c.2,1,.3,2,.5,2.9h0c.1-.9.3-1.9.4-2.9l1.5-9.2h4.6s-3.6,13.5-3.6,13.5c-.9,3.3-2,6.7-3.9,9-1.5,1.7-3.3,2.5-4,2.8l-1.4-4.1c.8-.3,1.6-.8,2.3-1.5.6-.6,1.1-1.3,1.5-2.1.1-.3.3-.5.3-.8s0-.4-.1-.7l-4.8-16.2h5.1Z"/>
  <polygon class="st0" points="309.5 93 309.5 110.6 304.8 110.6 304.8 96.8 301.2 96.8 301.2 110.6 296.5 110.6 296.5 93 309.5 93"/>
  <polygon class="st0" points="327.7 93 327.7 110.6 323 110.6 323 96.8 319.3 96.8 319.3 110.6 314.6 110.6 314.6 93 327.7 93"/>
  <path class="st0" d="M340,102c-1.6,0-3.7.5-3.7,3,0,1.8,1,2.4,1.7,2.4.8,0,1.6-.5,1.9-1.5,0-.3.1-.5.1-.8v-3ZM344.6,106.5c0,1.4,0,2.8.3,4h-4.2s-.2-1.7-.2-1.7h0c-1,1.4-2.3,2-3.9,2-2.7,0-4.6-2.2-4.6-5.3,0-4.6,4-6.5,8-6.5v-.4c0-1.4-.8-2.4-2.5-2.4-1.4,0-2.5.4-3.6,1l-.9-3.2c1-.6,3-1.3,5.5-1.3,5.3,0,6.2,3.7,6.2,7.3v6.5Z"/>
  <path class="st0" d="M141.2,54.3v1.9c0,1.1,0,1.9.2,2.5.1.6.4,1,.9,1.3.5.3,1.2.4,2.2.4v1.6c-2-.2-4.1-.2-6.2-.2-1.9,0-3.8,0-5.7.3v-1.6c.9,0,1.6-.1,2-.3.5-.2.8-.6,1-1.1.2-.5.3-1.2.3-2.1v-17.6c0-1.6-.2-2.7-.6-3.3-.4-.6-1.3-.9-2.7-.9v-1.6c2,.2,4,.2,6.1.2,5.7,0,12.7,0,15.5-.2h.8c0,1.6.3,4.1.8,7.3l-2,.5c-.2-1.4-.5-2.5-.8-3.2-.3-.7-.7-1.3-1.2-1.6-.5-.3-1.1-.5-1.9-.6-.8-.1-4.6-.1-6.1-.1l-2.7.2v18.4Z"/>
  <path class="st0" d="M166,56.5c-1.3,1.6-2.4,3-3.1,3.9-.7.9-1.4,2.2-1.4,2.2l-1.6-.5s.2-2.3.2-3.2v-18.8c0-1,0-1.8-.2-2.3-.1-.5-.4-.9-.9-1.2,0,0-.5-.4-1-.4v-1.5c2,.2,1.8.2,3.7.2,1.9,0,3.8,0,5.7-.2v1.5h-.5c-.8,0-1.5.2-1.9.5-.4.3-.6.8-.7,1.3,0,.5-.1,1.3-.1,2.2v1.8s-.3,13.5-.3,13.5l15.1-18.8c1.5-1.9,5-1.7,5-1.7v.7c0,0,0,.4,0,.4,0,.2,0-.4,0,1,0,1.4,0,2.4,0,3.1v16.2c0,1.4.2,2.4.5,3.1.3.6,1.1,1,2.3,1h.4v1.5c-2-.2-3.9-.2-5.9-.2-1.8,0-3.7,0-5.5.2v-1.5c1.4,0,2.2-.3,2.6-.9.4-.6.5-1.6.5-3.1v-1.8s.4-14.2.4-14.2l-13,16.2Z"/>
  <path class="st0" d="M330.7,56.4c-1.3,1.7-2.4,3-3.1,3.9-.7.9-1.4,2-2,3l-2-.9c.1-1.6.2-2.8.2-3.6v-18.8c0-1,0-1.8-.2-2.3-.1-.5-.4-.9-.9-1.2-.5-.3-1.2-.4-2.1-.4v-1.5c2,.2,3.9.2,5.7.2,1.9,0,3.8,0,5.7-.2v1.5s-.5,0-.5,0c-.8,0-1.5.2-1.8.5-.4.3-.6.8-.7,1.3,0,.5-.1,1.3-.1,2.2v1.8l-.3,13.5,15.1-18.8c1.5-1.9,5-1.7,5-1.7v.7c0,0,0,.4,0,.4,0,.2,0-.4,0,1,0,1.4,0,2.4,0,3.1v16.2c0,1.4.2,2.4.5,3.1.3.6,1.1,1,2.3,1h.4v1.5c-2-.2-3.9-.2-5.9-.2-1.9,0-3.7,0-5.5.2v-1.5c1.4,0,2.2-.3,2.6-.9.4-.6.5-1.6.5-3.1v-1.8l.4-14.2-13,16.2Z"/>
  <path class="st0" d="M208.9,59.2l-6.3-18.8-4.3,10.9-2.8,7.9h10c0,0,3.5,0,3.5,0ZM207.9,61.8h-10.1c-.5,0-1.2,0-2.1,0h-2.1c-.9,0-1.5.2-2,.7-.5.4-.9,1-1.1,1.8-.2.8-.5,1.8-.6,3h-1.9c0,0,.2-5.3.2-5.3v-2.9s.7-.3.7-.3l1.2.2,2.3.2,6.7-16.6c.9-2.2,1.8-4.6,2.8-7.3l3.4-1.5c.5,1.5.8,2.6,1,3.2.2.6.4,1.2.6,1.9.2.7.6,1.8,1.1,3.4l5.9,16.8,3.4-.3,1.4.4-.4,2.6-1.5,5.9-1.9-.2c.2-1.4.3-2.5.3-3.3,0-.9-.1-1.5-.4-1.9-.3-.3-1.7-.5-4.4-.5h-2.5Z"/>
  <path class="st0" d="M227.9,36.7v17.8s0,1.8,0,1.8c0,1,0,1.8.2,2.3.1.5.4.9.9,1.2.4.3,1.2.4,2.1.4v1.5c-1.8-.2-3.6-.2-5.4-.2-2,0-4,0-6,.2v-1.5c1.3,0,2.2-.3,2.5-.9.4-.6.5-1.6.5-3.1v-16.2c0-1,0-1.8-.2-2.3-.1-.5-.4-.9-.9-1.2-.4-.3-1.1-.4-2-.4v-1.5c2.5.1,4.3.2,5.5.2.8,0,1.6,0,2.5,0,.8,0,1.6,0,2.4-.1.8,0,1.6,0,2.5,0,1.5,0,2.8.3,3.9.8,1.1.5,2.1,1.3,2.7,2.4.6,1.1,1,2.4,1,3.9,0,1.9-.5,3.5-1.4,4.9-.9,1.4-2.2,2.4-3.7,3.1-1.6.7-3.2,1.1-5.1,1.1v-1.6c1.8-.2,3.1-.9,3.9-2,.7-1.1,1.1-2.6,1.1-4.5,0-2.1-.5-3.6-1.6-4.5-1-.9-2.6-1.4-4.7-1.4-.3,0-.6,0-.7,0"/>
  <path class="st0" d="M257,49.4l-2.7-9-3.4,9h6.1ZM257.8,51.6h-7.8s-1.7,4.4-1.7,4.4c-.4,1-.6,1.8-.6,2.5s.2,1.1.7,1.3c.5.2,1.2.3,2.1.4v1.5c-1.7-.2-3.4-.2-5.1-.2-1.6,0-3.1,0-4.6.2v-1.5c.9,0,1.6-.2,2.2-.7.4-.3.7-.8,1.1-1.6.4-.7.8-1.5,1.1-2.3.3-.8.7-1.6,1.1-2.5.4-.9.7-1.8,1-2.4l3.4-8.3c.9-2.2,1.8-4.6,2.8-7.3l3.4-1.5c.4,1.5.8,2.6,1,3.2.2.6.4,1.2.6,1.9.2.7.6,1.8,1.1,3.3l3.4,10.1c.3,1,.7,2.1,1.1,3.4.4,1.3.9,2.3,1.6,3.2.7.9,1.5,1.3,2.5,1.4v1.5c-1.8-.2-3.6-.2-5.5-.2-1.9,0-3.8,0-5.8.2v-1.5c.8,0,1.4-.1,1.9-.3.5-.2.8-.6.8-1.3s0-.7-.1-1c0-.3-.2-.7-.3-1.2-.1-.5-.2-.8-.3-.9l-1.2-3.9Z"/>
  <path class="st0" d="M279.4,48.2v7.8c0,1.3.2,2.3.5,2.9.3.6,1.1.9,2.2.9.8,0,1.6-.1,2.3-.4.7-.3,1.3-.6,1.8-1.1.5-.5.8-1.1,1.1-1.8.3-.7.4-1.4.4-2.3,0-2.2-.6-3.8-1.8-4.7-1.2-.9-2.9-1.4-5.2-1.4-.5,0-.9,0-1.2,0M279.4,46.3c4.3,0,6.5-1.8,6.5-5.3,0-1.5-.4-2.6-1.3-3.4-.9-.8-2-1.2-3.5-1.2h-1.6s0,9.9,0,9.9ZM285.4,46.8c1.4.2,2.7.5,3.8,1.1,1.1.5,2,1.3,2.6,2.3.6,1,.9,2.2.9,3.7,0,2.9-1,4.9-3,6.1-2,1.2-4.5,1.8-7.6,1.8-.6,0-1.6,0-2.8-.1-1.2,0-2.1-.1-2.8-.1-1.8,0-3.7,0-5.5.2v-1.5c1,0,1.7-.2,2.1-.4.4-.3.7-.7.8-1.2.1-.5.2-1.3.2-2.3v-16.2c0-1,0-1.8-.2-2.3-.1-.5-.4-.9-.9-1.2-.5-.3-1.2-.4-2.1-.4v-1.5c2.5.1,4.4.2,5.8.2.7,0,1.9,0,3.4,0,1.5,0,2.7,0,3.4,0,1.3,0,2.5.2,3.5.7,1.1.4,1.9,1.1,2.5,2,.6.9,1,2,1,3.4,0,1.5-.5,2.8-1.6,3.9-1,1.1-2.4,1.9-3.9,2.4"/>
  <path class="st0" d="M309.6,50.1l-3-9.7-2.3,6.1-3.4,9.5c-.4.9-.6,1.7-.6,2.5s0,.7.3.9c.1.2.4.4.6.5.3.1.5.2.8.2.3,0,.6,0,1,0v1.5c-1.6-.2-3.2-.2-4.8-.2-1.4,0-2.8,0-4.2.2v-1.8c0,0,.1,0,.2,0,0,0,0,0,.1,0,0,0,0,0,.1,0,.4,0,.9-.2,1.4-.5.3-.3.6-.8,1-1.4.3-.6.7-1.4,1.1-2.3.4-.9.8-1.8,1.1-2.7.4-.9.7-1.7.9-2.4l3.3-8.3c.3-.8.7-2,1.3-3.4.5-1.4,1-2.8,1.4-4l3.3-1.5c.7,2.5,1.6,5.3,2.6,8.5l3.3,10.1c.3,1,.6,2.1,1.1,3.4.4,1.3.9,2.4,1.5,3.3.6.9,1.4,1.3,2.4,1.3v1.5c-1.7-.2-3.5-.2-5.3-.2-1.8,0-3.7,0-5.6.2v-1.5c.8,0,1.4-.1,1.9-.3.5-.2.7-.6.7-1.3s0-.7,0-1c0-.3-.1-.7-.2-1.1,0-.4-.2-.7-.2-.8l-1.7-5.7Z"/>
  <path class="st0" d="M364.1,46.9l4.3-5,1.4-1.6c.3-.3.6-.7.9-1.1.4-.4.7-.8.9-1.2.3-.4.4-.8.4-1.1,0-.7-.5-1-1.6-1h-.5s0-1.5,0-1.5c1.6.2,3.3.2,4.9.2,1.2,0,2.9-.1,5.2-.3v1.6c-.8,0-1.6.2-2.3.4-.7.3-1.3.6-1.9,1.1-.6.4-1.2.9-1.6,1.4-.5.5-1.1,1.1-1.9,1.9l-4.7,4.9c.9.3,1.8.8,2.5,1.5.8.7,1.5,1.6,2.4,2.7.4.6,1,1.4,1.7,2.5.7,1.1,1.3,2.1,1.9,3.1.6.9,1.2,1.9,1.9,2.8.5.6.9,1,1.4,1.3.4.3,1.1.4,2.1.4v1.5c-.8,0-1.9.2-3.2.2-.9,0-1.7,0-2.2-.2-.6-.1-1.1-.4-1.7-.7-.6-.4-1.2-1-1.8-1.8-.2-.2-.6-.8-1.2-1.9-.7-1-1.1-1.8-1.4-2.3-.3-.5-.7-1.1-1.2-1.9-.5-.8-1-1.5-1.5-2.1-1-1.3-1.6-2.1-2-2.5-.3-.3-.7-.6-1.2-.8l.2-.7ZM363.2,48.6v7.5c0,1,0,1.7.2,2.3.1.6.4,1,.8,1.3.4.3,1.1.5,2.1.5v1.5c-1.8-.2-3.6-.2-5.5-.2-2,0-3.9,0-5.9.2v-1.5c1.3,0,2.2-.3,2.5-.9.4-.6.6-1.6.6-3.1v-16.2c0-1,0-1.8-.2-2.3-.1-.5-.4-1-.9-1.2-.4-.3-1.1-.4-2-.4v-1.5c1.8.2,3.6.2,5.5.2,1.9,0,3.8,0,5.8-.2v1.5s-.4,0-.4,0c-.8,0-1.5.2-1.8.5-.4.3-.6.8-.7,1.3,0,.5-.1,1.3-.1,2.2v8.7Z"/>
  <path class="st0" d="M406,48.2c0-1.8-.3-3.7-1-5.6-.7-1.9-1.7-3.5-3.1-4.7-1.4-1.3-3-1.9-5-1.9-2.1,0-3.9.6-5.4,1.7-1.4,1.1-2.5,2.6-3.2,4.4-.7,1.8-1.1,3.8-1.1,5.8,0,2,.4,3.9,1.1,5.8.7,1.9,1.8,3.5,3.2,4.7,1.4,1.2,3.2,1.8,5.2,1.8,2,0,3.8-.6,5.1-1.8,1.4-1.2,2.4-2.7,3.1-4.6.7-1.8,1-3.8,1-5.7M411.4,47.6c0,2.3-.4,4.4-1.1,6.2-.8,1.8-1.8,3.4-3.2,4.7-1.4,1.3-3,2.3-5,2.9-1.9.7-4,1-6.2,1-2.6,0-5-.6-7.2-1.9-2.2-1.2-3.9-3-5.1-5.2-1.2-2.2-1.9-4.6-1.9-7.3,0-2.2.4-4.1,1.2-5.9.8-1.8,1.9-3.3,3.4-4.6,1.4-1.2,3.1-2.2,5-2.9,1.9-.7,3.9-1,6.1-1,1.9,0,3.8.3,5.5,1,1.7.7,3.2,1.7,4.5,3,1.3,1.3,2.3,2.8,3,4.5.7,1.7,1.1,3.5,1.1,5.4"/>
  <path class="st0" d="M421.4,48.1v7.7c0,1.3.2,2.3.5,2.9.3.6,1.1.9,2.2.9.8,0,1.6-.1,2.3-.4.7-.3,1.3-.6,1.8-1.1.5-.5.8-1.1,1.1-1.8.2-.7.4-1.4.4-2.3,0-2.2-.6-3.8-1.8-4.7-1.2-.9-2.9-1.4-5.2-1.4-.5,0-.9,0-1.2,0M421.4,46.2c4.3,0,6.5-1.8,6.5-5.3,0-1.5-.4-2.6-1.3-3.4-.9-.8-2.1-1.2-3.5-1.2h-1.6v9.9ZM427.4,46.7c1.4.2,2.7.5,3.8,1.1,1.1.5,2,1.3,2.6,2.3.6,1,1,2.2,1,3.7,0,2.9-1,4.9-3,6.1-2,1.2-4.5,1.8-7.6,1.8-.6,0-1.6,0-2.8-.1-1.2,0-2.1-.1-2.8-.1-1.8,0-3.7,0-5.4.2v-1.5c1,0,1.7-.2,2.1-.4.5-.3.7-.7.9-1.2.1-.5.2-1.3.2-2.3v-16.2c0-1,0-1.8-.2-2.3-.1-.5-.4-.9-.9-1.2-.4-.3-1.1-.4-2.1-.4v-1.5c2.5.1,4.4.2,5.8.2.8,0,1.9,0,3.4,0,1.5,0,2.7,0,3.4,0,1.3,0,2.5.2,3.5.7,1.1.4,1.9,1.1,2.5,2,.6.9,1,2,1,3.4,0,1.5-.5,2.8-1.6,3.9-1.1,1.1-2.3,1.9-3.9,2.4"/>
  <path class="st0" d="M449.6,48.1v7.8c0,1.3.2,2.3.5,2.9.3.6,1.1.9,2.2.9,1.1,0,2-.2,2.8-.7.8-.5,1.4-1.1,1.8-2,.4-.8.6-1.8.6-2.9,0-1.4-.3-2.5-.8-3.4-.6-.9-1.3-1.6-2.3-2-1-.4-2.1-.6-3.3-.6h-.5c-.5,0-.9,0-1.2,0M436.1,34.3c1.3,0,2.6,0,3.7.1,1.2,0,2.6,0,4.3,0,1.7,0,2.7,0,2.9,0,2.5,0,4.4,0,5.6-.2v1.5c-1,0-1.7.1-2.1.4-.5.3-.7.7-.8,1.2,0,.5-.2,1.3-.2,2.4v6.2s5.3,0,5.3,0c1.5,0,2.8.3,4,.8,1.2.6,2.1,1.4,2.8,2.4.7,1.1,1,2.3,1,3.8v.4c0,1.9-.6,3.5-1.5,4.7-.9,1.2-2.2,2-3.7,2.6-1.5.5-3.2.8-5.1.8-.6,0-1.5,0-2.8-.1-1.2,0-2.2-.1-2.8-.1-1.6,0-3.4,0-5.4.2v-1.5c1.2,0,2.1-.3,2.5-.8.4-.5.6-1.4.6-2.6v-14.9s-.2-5.2-.2-5.2h-1.1c-1.8,0-3,.2-3.8.7-.7.4-1.2,1.1-1.4,1.9-.2.8-.4,1.7-.6,2.5l-2.1.2.5-5.1.2-2.6Z"/>
  <polygon class="st0" points="177.1 78 177.1 74.6 418.5 74.4 418.5 76.1 177.1 76.3 177.1 78"/>
  <path class="st1" d="M56.1,14.6c-24,0-36,8.5-41.1,13.5l-.3.3v36.9c0,14.4,25.8,31.6,41,39.5l.5.3.5-.3c15.2-7.9,40.9-25.2,40.9-39.6V28.9s0-.4,0-.4l-.3-.3c-5-5-17.1-13.5-41.1-13.5M56.2,120.2c-5.3-2.4-55-26.4-55-54.8V23.8C2.7,21.4,17.1,1.1,56.1,1.1c39,0,53.4,20.2,55,22.6v41.6c0,28.5-49.7,52.5-54.9,54.9"/>
  <path class="st2" d="M56.2,106.4l-1-.5c-15.4-8-41.5-25.6-41.5-40.5V29s0-.9,0-.9l.6-.6c5.2-5.2,17.5-13.8,41.9-13.9,24.4,0,36.8,8.6,41.9,13.8l.6.6v.9s0,36.4,0,36.4c0,14.9-26.1,32.5-41.5,40.6l-1,.5ZM56.1,2.2c-21.2,0-34.8,6.1-42.5,11.2-6.9,4.6-10.4,9.3-11.4,10.7v41.3c0,27.2,46.9,50.3,54,53.6,7.1-3.4,53.9-26.6,53.9-53.7V24c-1-1.4-4.5-6.1-11.4-10.7-7.7-5.1-21.3-11.2-42.5-11.2M56.2,103.9c18.2-9.5,40.3-26.1,40.3-38.6V28.9c-4.6-4.6-16.4-13.2-40.4-13.2-24,0-35.8,8.7-40.3,13.2v36.4c0,12.5,22.2,29.1,40.4,38.6M56.1,0c42.5,0,56.1,23.4,56.1,23.4v41.9c0,31-56,56.1-56,56.1C56.2,121.4,0,96.4,0,65.4V23.5S13.6,0,56.1,0"/>
  <path class="st1" d="M84.3,115.5c-13.8,10-27.4,16.1-27.5,16.2l-1.1.5-1.1-.5c-.1,0-13.7-6.1-27.5-16.1-10.2-7.4-20.7-15.5-25.5-26.7v1c0,29.9,54.2,60.6,54.2,60.6,0,0,54.1-30.8,54.1-60.7v-1c-4.8,11.3-15.3,19.4-25.5,26.8"/>
  <path class="st2" d="M19.5,121.4c9.4,9.7,20.8,17.9,28.4,22.9,3.9,2.5,6.7,4.3,7.9,4.9,1.1-.7,4-2.4,7.8-4.9,5-3.3,11.8-8.1,18.5-13.8,12.2-10.3,24.2-23.6,26.3-36.6-5.5,9.2-14.7,16.1-23.4,22.5l-.6-.9.6.9c-13.9,10.1-27.5,16.2-27.7,16.3l-1.5.7-1.5-.7c0,0-13.8-6.2-27.7-16.2-8.7-6.4-17.9-13.3-23.4-22.5,1.6,9.4,8.3,19,16.5,27.4M55.2,151.4s-13.6-7.7-27.2-19.2C14.4,120.7.6,105.5.5,89.8v-1s2.1-.4,2.1-.4c4.7,10.9,15,18.9,25.2,26.3,13.7,9.9,27.3,16,27.4,16l.6.3.7-.3h0s0,0,.1,0c.1,0,.3-.1.5-.2.4-.2,1-.5,1.7-.8,1.5-.7,3.6-1.8,6.2-3.2,5.1-2.8,11.9-6.8,18.8-11.7,10.2-7.4,20.5-15.4,25.1-26.3l2.1.4v1c0,15.6-13.8,30.9-27.4,42.4-13.6,11.5-27.2,19.2-27.2,19.3l-.5.3-.5-.3Z"/>
  <path class="st0" d="M56.1,15.7c-24,0-35.8,8.7-40.3,13.2v36.4c0,12.5,22.2,29.1,40.4,38.6,18.2-9.5,40.3-26.1,40.3-38.6V28.9c-4.6-4.6-16.4-13.2-40.4-13.2"/>
  <path class="st3" d="M66.2,42c.1.2.1.5,0,.9-.2.6-.8,1-1.8.7-.5-.1-.8-.4-1.1-.7-.2-.3-.3-.6-.3-.9,0-.3.3-.5.7-.7.3,0,.6-.1.9,0,0,.2-.2.4-.2.6,0,.3-.2.5,0,.8.1.4.6.6.9.2.3-.3.4-.9.3-1.4.3.1.5.3.6.5M63,41.8s0,0,0,.1c0,0,0,0,0-.1M62.3,41.5c-.7.2-1.5,0-2.2.3-.7.2,1.4.6,1.8,1.3.4.7,1.5,1.9,2.5,2.1,2.1.4,2.1-.8,3-1.1.2,0,.6.2.9.3.5.1.9-.2.9-.4,0-.5-.5-.9-.8-1.3-.1-.1-.3-.3-.4-.4-.4,0-.7,0-1-.2,0,0,0,0,0,0,.2.3,0,1.2-.2,1.5-.4.6-1.2,1-2.4.7-1.1-.3-1.9-1.3-1.6-2.1,0,0,0-.1.1-.2-.2.8.5,1.6,1.5,1.9.5.1,1,.1,1.4,0,.4-.2.6-.5.7-.9.1-.4.2-.7,0-1.1,0,0,0,0,0,0-.3-.1-.5-.3-.8-.6-.2-.2-.4-.4-.7-.6-.1,0-.3,0-.4,0-1,0-1.7.6-2.3.8"/>
  <path class="st3" d="M79.5,43.4c-.5.7-1.2.9-1.5.8,0,0,0,0-.1,0,.8,0,1.5-.8,1.7-1.3.2-.5.2-.8,0-1,.2,0,.4.2.5.2.2.3-.3.9-.6,1.3M77.4,43.8c-.2-.1-.3-.3-.4-.4-.2-.3-.5-.7-.5-.9,0-.6.8-.7,1.1-.7,0,.2,0,.4-.1.6,0,.2,0,.4,0,.7.2.3.6.4.9,0,.3-.4.2-1,0-1.4,0,0,0,0,0,0,.3,0,.6,0,.8,0,0,0,.1,0,.1.1,0,.2,0,.5,0,.9-.2.8-1.1,1.3-1.8,1.1M75.1,41.5c0,.1,0,.3.2.5.2.4.6.7.8.7,0,.1.2.2.4.4.4.5.3,1,.7,1.5.7.8,2.1.8,3.1-1,.5-.9,1.3-1.8,1.9-1.9-.4,0-.9,0-1.4-.1-.7-.2-1.6-.7-2.3-.7-.3,0-.7,0-1.1.1-.7.4-1.4.6-2.2.5"/>
  <path class="st2" d="M65.7,41.3c.3.2.5.4.8.6.1,0,.3.1.5.2.3.1.7.2,1,.2.3,0,.6,0,1-.1,2.8-.7,2.8-5,2.8-7,0-1-.2-1.1-.2,0,0,1.3-.2,4.4-1.6,5.5-2.4,1.9-4.2-.5-5.6-1.8-1.6-1.4-4.3-1.7-5.6.1-.1.2,0,.3.2.3,1.8-.2,3.1-.9,4.6.3.5.4,1,.9,1.5,1.3.2.2.4.4.7.6"/>
  <path class="st2" d="M80,38.6c.7-.1,1,.7,1.4.3.1-.1,0-1.1-1.2-1-.9,0-1.5.5-2,1-1.2,1.2-2.7,2.8-4.4.9-.9-1-1-4.1-1-5,0-.9-.1-.5-.1.3,0,1.1-.3,6.1,2.4,6.4h0c.8,0,1.6,0,2.2-.5,0,0,.1,0,.2-.1.8-.7,1.5-2.2,2.6-2.3"/>
  <path class="st3" d="M70.1,45.6c-1.1-.2-2.3.4-2.9,1.4,0,0,0,.2.1.1.9-.5,1.8-1,2.9-1,1.1,0,2.8,1.6,2.9,1.4,0-.2-1.2-1.6-3-1.9"/>
  <path class="st3" d="M77.8,45.9c-.5-.4-1.6-.2-2.4.3-.9.6-1.2,1.6-.9,1.6.1,0,.7-.8,1.5-1.3.6-.4,1.4-.5,1.9-.6,0,0,0,0,0-.1"/>
  <path class="st3" d="M75.3,49.4c-1.4,0-2.5-.7-2.5-.1,0,.5,1.6,1.4,2.7,1.1,1.1-.4,1.2-1.2,1.1-1.6-.2-.3-.3.6-1.3.6"/>
  <path class="st3" d="M84.2,57.8c.9-.9,1.9-3.3,2.2-4.8.7-3.2.6-7.4-.7-9.5-.6-.9-1.4-2-2.2-2.7-.4-.3-.8-.7-1.3-.8,0,0,0,.1.1.2.7.7,1.3,1.8,1.7,2.8.5,1.3.4,2.6.3,3.9,0,.7-.2,1.4-.4,2.1-.3,1.1-.6,2.2-1,3.3-.1.3-.6,1.6-.7,1.7,0,0,.1-.8.2-1.3,0-.6.1-1.3,0-2-.3-1.2-1-2.3-2.1-3,0,0,0,0,0,0,.9.7,1.3,1.9,1.5,3,.2,1,0,2-.2,3-.2.9-.9,2.7-1.4,3.5-.4.6-1.3.3-2.2.2-.5,0-1.2,0-1.6-.3-.3-.3-.5-.6-.4-1,.1-.4.2-.6.8-1.2.5-.6,1.6-2,1.8-2.5.2-.6.5-1.8,0-2.4,0,0,.1.5,0,.8,0,.3,0,.7-.5.6-.2,0-.5.1-.8.4-.2.2-.3.7-1.6.6-.6,0-1.5-.5-1.7-.5-.9-.3-1.5,0-1.8.5-.1,0-.6-.3-.7-.4-.5-.5-.7-1.5-.8-1.3,0,.2-.1.4,0,.8,0,.5.3.8.6,1,.7.5,1.4.7,1.8,1.4.2.3.5.9,1,1.2.6.4.6.7.5,1.1-.1.4-.2,1.5-2.9,1.7-.2,0-1.1,0-1.7,0-.5,0-.9,0-1.4,0-1,0-1.9-.1-2.8-.5-.9-.3-1.7-1-2.2-1.8-.7-1.1-.7-2.5-.6-3.7.1-1.3.5-2.6.9-3.8,0,0,0,0,0,0-.9,1.6-1.9,3.4-2,5.2,0,1.2.1,2.5.8,3.5,1.2,1.7,3.4,1.8,5.4,1.8,0,.8.7,4.2,1.7,4.6,0,0,.3-1.4.5-2.7.1-1,.3-1.9.3-2,0,0,.7,0,1.2,0,.2,0,.1.3.1.5,0,.3,0,.7.3.7.2,0,.5-1,.7-1.1.2-.1-.1.5.3.5.2,0,1.5-.2,2.1,0,.4,0,.3-.9.4-.7.1.2.2.9.2,1.1,0,.4.3,0,.5-.3.2-.3.2-.8.3-1.1,0,0,0,.6-.2,1.6-.2,1.2-.8,2.5-.5,2.6.4,0,1.4-.8,1.9-1.9.4-.8.6-1.7.6-2.1.4,0,.9.4,1.3.1-.1.2-.2.3-.2.6,0,.3.2.6.5.7.4.1.7-.1,1.1-.3,1.4-.8,3.3-4.9,3.3-3.3,0,.7-.7,2.1-.4,1.8"/>
  <path class="st3" d="M81.3,59.4s0,0,0,0h0s0,0,0,0"/>
  <path class="st3" d="M54.7,63.5c-.2.5-.4.9-.7,1.4-.3.5-.6.9-.7,1.4,0,.1,0,.2.2.2,1.1-.4,1.7-1.4,2.1-2.4.5-1,.7-2.2.8-3.3.1-1.2,0-2.4,0-3.5-.1-1.2-.2-2.4-.3-3.6,0,0,0,0,0,0,0,2.2,0,4.4-.3,6.6-.2,1.1-.4,2.2-.9,3.2"/>
  <path class="st3" d="M64.8,59.2c-.1-.2-.7,1.5-1,2.3-.2.8-.7,3.6-.5,6.7.1,2.5.9,4.7,1.4,5.1,1.1.9,1.6.6,2.1.3.4-.2,1.1-.4,2-.4.9,0,1.6.2,1.9.4,1.4.9,2.1,0,2.8-1.2.3-.6.5-1.3.6-1.9.2-1.1.4-3.2.5-4.1.1-1.7-.1-2.6-.4-3.4-.5-1.4-1.1-2.3-1.2-2-.1.4.7,2.8-.4,6.4-.3,1-1,1.9-1.5,2.1-.5.3-.8.3,0,.3.4,0,.8.2,1.1.2.9,0,1.4-.2,1.3.2,0,.4-.5.8-1.3,1.1-.4.2-1.2,0-1.7-.2-.6.3-3.1.4-3.6,0-.1.3-.8.5-1.1.4-.4-.1-.6-.6-.5-.9,0-.4.4-.7,1-.6.5,0,.7.5.9.4-.6-.2-.6-.9-.7-1.7,0-.8-1.3-1.4-1.8-3.4-.5-2,.2-6.1,0-6.3"/>
  <path class="st3" d="M70.8,27.1c0-1.3-1-2.8-2.2-3.3l1.2,5.4c0,.7,1.2-1.3,1.1-2"/>
  <path class="st3" d="M41.8,37c0,1.1.2,2.2.8,3.1.2.4.4.8.8,1.1.6.6.6.4-.3.8-1.3.6-2.5,1.4-3.6,2.4-1.5,1.5-1.1,3.4-1.4,3.7-.3-.8-.4-3-.4-3.9.5-4.9,2.8-5.8,4.1-7.2M83.8,36.8c1.3,0,2.1-1.1,2.2-2.2.2-1.5-1.5-2.4-2.2-3.7-1.1-1.9-1.5-4.2-3.7-4.9-.9-.3-1.9-.2-2.8-.3-.8,0-1-.9-1.2-1.5-.6-1.9-1.6-2.8-3.3-3.4-1.6-.6-4.3-.5-7.8,0-.2-.2-.4-.4-.6-.6-1.3-.8-2.4-1.7-5.6-1.7-2.6,0-5.3,1.7-7,3.3-.9-.2-2-.2-2.9-.2-3.7,0-6.2,1.8-8.6,4.2-1.5,1.5-3.2,4.2-4.9,6-1.7,1.8-5.8,5-5.1,4.7,2.3-1,3.3-.9,3.3-.9-1,1.4-3.8,3.2-4.9,4-.9.6-2.6,1.5-4,2.6-.7.5-1.7,1.2-2.4,2.9-.3.7.3-.4,1.1-.9,1.2-.7-.1.6-.9,2.1-.6,1.1-.9,3.1-.9,4.1,0,.2,0,.4,0,.6-3,1.9-4.9,4.8-6.4,7.4v2.5c1.8-3.3,3.8-6.4,6.6-8.6.2,1.1.7,2,1.2,2.7-2.3,3.6-5.7,9.1-7.7,11.5.1.7.3,1.5.5,2.3.1-.6.4-1.2.9-1.7,1.4-1.4,4.6-7.6,8-10.6.5.3,2.4.6,1.8,4.8-.4,2.6-3.4,4.9-1.6,3.9,2.2-1.2,4.8-5,5.3-5.9,1-2,1.2-4.2,1.2-4.8.2-4.8-1-6.8,0-10.6.8-2.8,3-7.7,8.9-8.9-5.9,1.8-6.7,6.2-7,10.4-.4,4.7,3.1,11.6,3.2,11.7-.4-.2-4.3-7.6-3.7-12.5-1.1,3.2.4,8,.4,9.4,0,.9,0,1.9-.5,2.7-.3.4-.7.6-1,1.1-.3.5-.3,1.2,0,1.7.2.6,1,1.1,1.7.9.5-.2,1-.7,1.2-1.7,0,.2.5,1.7-.5,3.2-1.2,1.8-3,2.2-4.6,3.8-2.8,2.9-1.3,5.5-1.4,6.5.5-2.6,0-4.5,2.9-5.9.3-.2-1.7,2.4,0,6-.9,1.2-1.6,2.7-1.6,3.5,0,.9.2,0-1.2-2.3-.2-.4-.4-.3,0,.8.6,2,.9,4.3.7,5.9-.2,2-.4,3.3-.7,4.6.3.2.6.5.8.7.4-1.7.9-3.4,1.1-4.9.6-3.7-.4-5.6,1.3-7.4.3.9,2.4,4,2.4,4.9,0,2.3,0,2,1,0,1.3-2.5,2.6-3.1,3.6-5.5,1.6-3.6,1.4-4.1,1.4-2.4,0,1.8-1.4,4.7-1.2,4.5,1.3-1.3,2.2-2.6,2.9-4.9-1.4,3.7-.7,4.1-1.6,6.7-.9,2.6-3.6,6.8-2.1,7.4.6.2,1.2.4,1.8.4.2,0,1.6-.1,1.6-.1.5.5,1.2.9,2,1.1-.3.1-.9,1.6-4.2,3.1-1.7.8-3.1,1.1-4.5,1.4.5.4,1,.8,1.6,1.2,1.5-.2,3.1-.3,4.6-.6.9.6,1.5,1.5,1.1,2.5-.5,1.2-1,.5-1.5,1,.6.4,1.2.8,1.8,1.2.6-1.1.7-2.4.7-3.7,0-.5-.2-1-.5-1.3,1-.2,1.9-.5,2.8-.9,1.6-.7,5.6-4,6.5-4.8.6,1.7,1.7,3.5,1.8,4,.6,1.6,2.7,3.9,5.5,5.5,2.8,1.6,5.2,1.7,6.1,3.4,1.1,2.1-.6,4.5.8,6.5.6.9,2.4,1.3,3,1.2.8-.2,1-.3.7,0-.3.4-.8.7-.7.9.3.3,1.3.2,1.7.2,1.7-.2,1.7,1.1,3,1.3,1.1.2,1.8-.8,1.5-.3-.3.3-.8.8-.5,1,1,.4,2.3-.5,2.5-.4,1.1.5,2,0,2.6-.3.6-.3-.7.7-.3.9.7.3,1.7-.5,2.2-.7,1.4.6,1.6-.3,1.5,0,0,.4-.2.6,0,.6.4,0,.9-.2,1.4-.6,0,0,0,0,0,0,.8-.6,1.6-1.6,1.9-2.6.2-.9.4-1.8.2-2.6-.3-1.3-.9-1.8-1.7-1.6-.4,0-.2-.7-.5-1.1-.1-.2-.3-.5-.7-.7-1.9-1.2-.8-3.1-3-3.1-2.2,0-3.3-2.9-4.7-3.6-1.6-.8-2.9-.9-3.8-1.9-1.6-1.8-.2-2.6-2.5-5.7-1.4-1.9-4.7-3.9-5.8-6.1-.5-1.1-1.1-2-1.4-3.1,1,1.2,2.6,2,4.2,2.1,1.3,0,2.6-.2,3.7-.9.5-.3,1.3-.6,2.1-1.6,1.5-1.8,2.1-4.3,2.2-4.5,0,0-.7,1.8-1.7,3.2-.6.9-1.4,1.5-2.1,1.8-.8.4-1.7.8-2.6.8-1.6,0-3.9-.6-4.9-1.9-.3-.5-.8-1.3-1-2.4,0-.3-.4-.6-.7-.6-1.1,0-.2,2.4,0,2.9,0,.2.2.3.3.5,0,1.6.5,3,1.5,4.8,1.3,2.1,3.6,3.3,4.9,5.6,1.4,2.4,1.2,3.8,1.7,5,.2.5.4.9.9,1.4.5.5,1.1.9,1.8,1.2.6.3,1.3.5,1.9.8,0,0,0,0,.1,0,0,0,.1,0,.2,0,0,0,.1,0,.2,0,0,0,0,0,.1,0,.1,0,.2.1.3.2,1.7.9,1,1.8,2.9,2.9,1.3.8,2.6-.5,3.6,1.6,0,0,0,0,0,.1,0,0,0,0,0,0,0,0,0,0,0,0,0,0,0,0,0,0,0,0,0,0,0,.1,0,0,0,0,0,0,0,0,0,0,0,0,0,0,0,0,0,0,0,0,0,0,0,0,0,0,0,0,0,0,0,0,0,0,0,0,0,0,0,0,0,0,0,0,0,0,0,0,0,0,0,0,0,0,0,0,0,0,0,0,0,0,0,0,0,0,0,0,0,0,0,0,0,0,0,0,0,0,0,0,0,0,0,0,0,0,0,0,0,0,0,0,0,0,0,0,0,0,0,0,0,0,.1.1.3.2.3.3.3.3,0,.8,0,1.8,0,0,0,.4.1.3,0,0,.1-.3.2-.4.5-.5,1.5-.7,1.8.7.2.6,0,2.1-.4,3.2-.3.6-1,1.4-1.5,1.6-.3.1-.5,0-.3-.3.1-.4.5-1.1.1-1.2-.1,0-.3.5-.6.8-.3.3-.5.4-1.1.2.4-.8,1-2.2,1.1-3,.3-2.3-.1-3.7-1.4-4.2-.7-.3-1.4.1-1.7.6-.1.1-.2.3-.2.4,0,0,.2-.1.3-.2,1.2-.7,2.9.7,2.3,3.4-.2.9-.5,2.4-1.3,2.9-.8.5-.7,0-.5-.8,0-.2.2-.7,0-.7s-.2.3-.3.5c-.5,1.1-1.6,1.1-2.2.9.4-.4,1.1-2,1.4-3.5.4-1.7-.4-3.8-1.6-3.9-.8,0-1.7.3-2,1.4,0,.2-.1.4,0,.5.1,0,.3-.3.4-.4.5-.4,1-.6,1.4-.5.8.3,1.2,1.6.7,3.5-.3,1.3-1.4,3.3-2.6,3.3-.5,0,0-.5.1-1,0-.2.2-.6,0-.7-.2-.1-.3.2-.4.4-.2.3-.3.4-.7.6-1,.6-2-.5-2.1-.8,0,0,1.5-1.5,1.9-2.9.6-2.4,0-3.8-.6-4.1-.7-.4-1.6-.5-2.8.9-.2.2-.6.7-.3.8.2,0,.3-.4.6-.6,1.5-1,2.5,0,2.2,1.9-.3,2.2-2.1,3.6-2.9,3.8-.7.1-1-.2-.7-.6.1-.2.3-.4.4-.7,0-.2.2-.4,0-.5-.2-.2-.3,0-.6.3-.2.1-.4.3-.7.3-.6,0-1.3-.4-1.7-.9-1-1.2-1-3.3.5-4.9,0,0,0,0,.1-.1h0s0,0,.1-.1c0,0,0,0,0,0,0,0,0,0,.1-.1,0,0,0,0,0,0,0,0,0,0,.1-.1,0,0,0,0,0,0,0,0,0,0,.1,0,0,0,0,0,0,0,0,0,0,0,.1,0,0,0,0,0,0,0,0,0,0,0,.1,0,0,0,0,0,0,0,0,0,0,0,.1,0,0,0,0,0,0,0,0,0,0,0,.1,0,0,0,0,0,0,0,0,0,0,0,.1,0,0,0,0,0,0,0,0,0,0,0,.1,0,0,0,0,0,0,0,0,0,0,0,.1,0,0,0,0,0,.1,0,0,0,0,0,.1,0,0,0,0,0,.1,0,0,0,0,0,.1,0,0,0,.1,0,.2,0,0,0,0,0,.1,0,0,0,.1,0,.2,0,0,0,0,0,0,0,0,0,.2,0,.3,0-1.1-.2-2.2.3-3.1.6-.6.2-1.1.4-1.5.3-1.2-.1-1-1.1-2-1.6,0,0,0,0,0,0,0,0,0,0,0,0,0,0,0,0,0,0,0,0,0,0,0,0,0,0,0,0-.1,0,0,0,0,0,0,0,0,0,0,0,0,0,0,0,0,0,0,0,0,0,0,0,0,0,0,0,0,0-.1,0,0,0,0,0,0,0,0,0,0,0,0,0,0,0,0,0-.1,0,0,0,0,0,0,0,0,0,0,0,0,0,0,0,0,0,0,0-.1,0-.2-.1-.4-.2,0,0,0,0,0,0-.1,0-.3-.2-.4-.2,0,0,0,0,0,0-.2,0-.3-.2-.5-.3,0,0,0,0,0,0-.6-.3-1.2-.7-1.8-1.2,0,0,0,0,0,0-.1,0-.2-.2-.4-.3,0,0,0,0,0,0-1-.7-2-1.6-3-2.5-2.2-2.1-3.8-5.2-4.4-7.1.2-.2.9-.5,1.7-.8,0,0,0,0,0,0,1.7-.7,3.9,1,5,2.3,1.3,1.5,1.7,3.4,2.3,5.2.4,1.2,1,2.2,1.8,3,.3.3.6.5,1,.7,0,0,0,0,0,0-.2-.2-.4-.4-.6-.7-1.3-1.6-1.6-3.6-2-5.6-.4-2-1.1-4-2.5-5.5-.5-.5-1.1-.9-1.8-1.1.8-.5,1.4-1.1,1.7-1.8.3-.7.4-1.5,0-2.2-.1-.3-.4-.5-.6-.8-.2-.6.4-1.2.6-1.8.1-.4.2-.8.2-1.2.1-.4.2-.9.2-1.3.2-.2.4-.3.6-.5.3-.4.5-.8.7-1.2.3-.7.4-1.5.4-2.3,0-.6-.3-3.6-.2-4.5,0-.9,0-2.3.2-3.2.3-1.4.6-2,.8-2.5,0,0,0,0,0,0-.7,1.1-1.2,3-1.3,3.4-.2,1.5-.3,3.2-.3,3.3-.6-1.3-1.8-3.5-2.5-4.7-.7-1.2-1.3-2.5-1.6-3.8,0,0-.1,0-.1,0,0,1.3.3,2.6.6,3.9.3,1.4.7,2.7,1.1,4,.2.7.4,1.3.5,2,0,.3.1.6.2.9,0,0,0,.1,0,.2,0,0,0,0,0,0,0,0,0,0,0,0,0,.2,0,.3,0,.5,0,.1,0,.3,0,.4-.4-.9-.8-1.9-1.3-2.7-.2-.3-.4-.3-.3,0,.2,1,.3,2.9-.2,4.6-.5,1.7-1.5,2.8-1.5,2.9.9-1.5,1.1-4.3,1.1-5.9,0-1.2-.3-4.8-.4-4.2-.7,4.9-2.9,7-3.4,7.7-.3.5-1.1,1.5-.7,3.3.2,1.2,1,2.2,1.3,2.5,0,0,0,0,.1,0-.1-.1-1.1,0-1.3,0-.5.1-1,.3-1.6.2-1.2-.2-.8-1.2-2.5-2.9-1.7-1.7-4.4-1.8-5.4.6-.2.4,1.2-2.9,1-7.5,0-1.5-1-3.7-1.7-4.9,0,0,.1.1.2.1,2.2,1.7,4.3,1.8,5.1,1.5.6-.2,1.1-.4,1.5-.8-.9.6-1.9,2.5-2.3,3.4-.9,2-.6,4.1.8,5.9.5.6,1.6,1.1,2.3,1.3.6.2-1.6-2-.8-4.5.6-2,2-3.4,3.2-4.9.8-1.1,2.2-3,2.4-4.4.3-1.7.5-3,.2-4.7-.2-1.3-1.2-3.4-2.7-3.6,0,0,0,0,0,0,1.4,2.5.8,6.4-1,8.6.1-.5.2-1,.2-1.5,0-2.8-.7-5.4-.9-8.2-.2-2.5.7-4.5,3.3-5,0,0,0,0,0,0-2-1-4.1.1-4.8,2.1-.9,2.6-.2,5.4-.4,8.1-.2,2.2-.7,3.4-2.9,4,2-.6,2.2-2.1,1.6-3.8-.7-1.8-1.5-3.2-1.1-5.2.4-2,1.2-4.5,3.1-5.7,1.6-1-3-2.6-4.4-4-1.1-1.1-1.8-1.8-2.1-3.4-.5-2.8,3.3-3.2,4.9-2,.8.5,1.4,1.2,1.8,2,0,0,0,0,0,0-.4-.8-.9-1.7-1.6-2.3-1.6-1.4-3-2-4.9-1.6-2,.4-3.8,1-5.5,1.7.8-.5,1.8-1.1,2.7-1.5.8-.4,3.6-1.3,5.5-.9,2.3.5,4.2,1.8,4.8,4,0,0-.2-1.9-.9-2.9-.7-1.1-2.4-2.2-3.9-2.8.8-.2,1.9-.4,2.6-.4,3.4-.3,5,0,5.5,0,1.1.2,2.2.8,2.5,2,.4,1.2-.3,2.3-1.1,3-.9.9-1.5,1.3-2,2.5-.2.5-.6,2.2,1.4,3.3.1,0,.2,0,.1-.2-.6-.5-1.1-1.1-.7-1.8.3-.6.9-1,1.5-1.4,1.8-1.2,3.8-1.9,4.8-4,1.9-3.9-2.3-7.6-5.9-7.6-1.4,0-3.2.6-4.2,1.1-1.5.8-3.6,1.5-5.7,1,2,0,3-.9,4.1-2.2,1.2-1.4,4.2-3,7.7-2.2,4.5,1,3.3,7,9.1,7-3.6-1.7-.9-5.2-4.9-7.7-1.3-.8-2.7-1-3.5-.9.7-.2,1.9,0,2.1,0,5.7.8,7.3,7.2,7.4,7.1.7-3.3-.4-6.3-1.5-7.9,2.6.2,5.8.7,7.2,2.1,3.2,3.2,0,5.1.2,6.6,0,0,0,0,0-.2-.1.9.3,1.7,1.3,1.7.4,0,.8,0,1.2-.2,1.3-.6,2.9-1.2,4.6-.1,1,.6,1.4,3,3.7,2.9-.3,0-1.6.7-2.3.1-.9-.7-1.5-1.8-2.9-1.8-.9,0-1.3.9-2.3,1.2,0,0,0,0,0,0,.4,0,2.5.5,3.8,1.4,1.6,1.2,3.8,3.4,4.7,4.8,1.9,2.9,2.5,6.2,2.7,6.7,0-2.4-1.5-6.3-2-7.3-.3-.6-1.2-1.8-1.6-2.4"/>
  <path class="st0" d="M64.8,95.9s0,0,0,0c0,0,0,0,0,0,0,0,0,0,0,0,0,0,0,0,0,0,1,.5.8,1.5,2,1.6.4,0,.9-.1,1.5-.3.9-.3,2-.8,3.1-.6-.1,0-.2,0-.3,0,0,0,0,0,0,0,0,0-.1,0-.2,0,0,0,0,0-.1,0,0,0-.1,0-.2,0,0,0,0,0-.1,0,0,0,0,0-.1,0,0,0,0,0-.1,0,0,0,0,0-.1,0,0,0,0,0-.1,0,0,0,0,0,0,0,0,0,0,0-.1,0,0,0,0,0,0,0,0,0,0,0-.1,0,0,0,0,0,0,0,0,0,0,0-.1,0,0,0,0,0,0,0,0,0,0,0-.1,0,0,0,0,0,0,0,0,0,0,0-.1,0,0,0,0,0,0,0,0,0,0,0-.1,0,0,0,0,0,0,0,0,0,0,0-.1,0,0,0,0,0,0,0,0,0,0,0-.1.1,0,0,0,0,0,0,0,0,0,0-.1.1,0,0,0,0,0,0,0,0,0,0-.1.1h0s0,0-.1.1c-1.5,1.5-1.6,3.7-.5,4.9.4.4,1.1.9,1.7.9s.5-.1.7-.3c.3-.2.4-.5.6-.3.2.1,0,.3,0,.5-.1.3-.3.5-.4.7-.3.4,0,.7.7.6.8-.2,2.6-1.6,2.9-3.7.2-2-.8-3-2.2-1.9-.3.2-.5.7-.6.6-.2,0,.1-.5.3-.8,1.2-1.4,2.1-1.2,2.8-.9.6.3,1.1,1.7.6,4.1-.3,1.4-1.9,2.9-1.9,2.9.2.2,1.1,1.3,2.1.8.3-.2.4-.3.7-.6,0-.1.3-.5.4-.4.1.1,0,.5,0,.7-.2.5-.6,1-.1,1,1.2,0,2.2-2,2.6-3.3.5-1.9,0-3.2-.7-3.5-.5-.1-.9,0-1.4.5-.1.1-.3.4-.4.4-.1,0,0-.3,0-.5.4-1.1,1.2-1.5,2-1.4,1.2,0,2,2.2,1.6,3.9-.4,1.5-1,3.1-1.4,3.5.6.2,1.7.2,2.2-.9,0-.1.1-.5.3-.5.2,0,.1.5,0,.7-.1.7-.2,1.3.6.8.8-.5,1.1-2,1.3-2.9.5-2.7-1.2-4.2-2.3-3.4-.1,0-.3.3-.3.2,0,0,0-.2.2-.4.3-.4,1-.9,1.7-.6,1.3.5,1.7,1.9,1.4,4.2-.1.9-.7,2.2-1.1,3,.6.2.8.1,1.1-.2.3-.3.5-.8.6-.8.3.2,0,.9-.1,1.3-.1.4,0,.4.3.3.4-.2,1.2-.9,1.5-1.6.5-1.1.6-2.6.4-3.2-.3-1.3-1.3-1.2-1.8-.7,0,0-.1.3-.2.4-.1,0-.1-.3-.1-.3,0-1,.3-1.5,0-1.8,0,0-.2-.2-.3-.3,0,0,0,0,0,0,0,0,0,0,0,0,0,0,0,0,0,0,0,0,0,0,0,0,0,0,0,0,0,0,0,0,0,0,0,0,0,0,0,0,0,0,0,0,0,0,0,0,0,0,0,0,0,0,0,0,0,0,0,0,0,0,0,0,0,0,0,0,0,0,0,0,0,0,0,0,0,0,0,0,0,0,0,0,0,0,0,0,0,0,0,0,0,0,0,0,0,0,0,0,0,0,0,0,0,0,0-.1,0,0,0,0,0,0,0,0,0,0,0,0,0,0,0,0,0,0,0,0,0,0,0-.1-1-2.1-2.3-.8-3.6-1.6-1.8-1.1-1.2-2.1-2.9-2.9-.1,0-.2-.1-.3-.2,0,0,0,0-.1,0,0,0-.1,0-.2,0,0,0-.1,0-.2,0,0,0,0,0-.1,0-.6-.3-1.3-.5-1.9-.8-.7-.3-1.3-.7-1.8-1.2-.5-.5-.7-.9-.9-1.4l-5.5,5.3s0,0,0,0c0,0,0,0,.1,0"/>
  <path class="st0" d="M84.4,107.9h0s0,0,0,0h0Z"/>
</svg>